<svg width="1423" height="1124" viewBox="0 0 1423 1124" fill="none" xmlns="http://www.w3.org/2000/svg">
<rect width="1440" height="1124" fill="#00C2E8"/>
<path d="M787.333 480.915C805.743 480.915 820.667 465.268 820.667 445.965C820.667 426.663 805.743 411.015 787.333 411.015C768.924 411.015 754 426.663 754 445.965C754 465.268 768.924 480.915 787.333 480.915Z" stroke="white" stroke-opacity="0.48" stroke-width="2" stroke-linecap="round" stroke-linejoin="round"/>
<path d="M787.333 435.48V456.45L800.667 463.44" stroke="white" stroke-opacity="0.48" stroke-width="2" stroke-linecap="round" stroke-linejoin="round"/>
<path d="M354.333 227.177C372.743 227.177 387.667 211.529 387.667 192.226C387.667 172.924 372.743 157.276 354.333 157.276C335.924 157.276 321 172.924 321 192.226C321 211.529 335.924 227.177 354.333 227.177Z" stroke="white" stroke-opacity="0.48" stroke-width="2" stroke-linecap="round" stroke-linejoin="round"/>
<path d="M354.333 181.741V202.711L367.667 209.702" stroke="white" stroke-opacity="0.48" stroke-width="2" stroke-linecap="round" stroke-linejoin="round"/>
<path d="M1356.33 275.408C1374.74 275.408 1389.67 259.76 1389.67 240.458C1389.67 221.155 1374.74 205.507 1356.33 205.507C1337.92 205.507 1323 221.155 1323 240.458C1323 259.76 1337.92 275.408 1356.33 275.408Z" stroke="white" stroke-opacity="0.48" stroke-width="2" stroke-linecap="round" stroke-linejoin="round"/>
<path d="M1356.33 229.973V250.943L1369.67 257.933" stroke="white" stroke-opacity="0.48" stroke-width="2" stroke-linecap="round" stroke-linejoin="round"/>
<path d="M1348.33 916.046C1366.74 916.046 1381.67 900.398 1381.67 881.096C1381.67 861.793 1366.74 846.146 1348.33 846.146C1329.92 846.146 1315 861.793 1315 881.096C1315 900.398 1329.92 916.046 1348.33 916.046Z" stroke="white" stroke-opacity="0.48" stroke-width="2" stroke-linecap="round" stroke-linejoin="round"/>
<path d="M1348.33 870.611V891.581L1361.67 898.571" stroke="white" stroke-opacity="0.48" stroke-width="2" stroke-linecap="round" stroke-linejoin="round"/>
</svg>
