<svg width="25" height="31" viewBox="0 0 25 31" fill="none" xmlns="http://www.w3.org/2000/svg">
<path d="M18.5945 0.514891C18.5294 0.443641 16.1832 0.543016 14.1414 2.71239C12.0997 4.87989 12.4138 7.36614 12.4598 7.42989C12.5057 7.49364 15.3711 7.59302 17.2002 5.07114C19.0293 2.54927 18.6597 0.588016 18.5945 0.514891ZM24.9419 22.5143C24.85 22.3343 20.4888 20.2005 20.8948 16.098C21.3009 11.9936 24.103 10.8686 24.1471 10.7468C24.1911 10.6249 23.0036 9.26552 21.7453 8.57739C20.8213 8.09224 19.7988 7.81428 18.7516 7.76364C18.5447 7.75802 17.8265 7.58552 16.3498 7.98114C15.3768 8.24177 13.1838 9.08552 12.5804 9.11927C11.9752 9.15302 10.1748 8.14052 8.2384 7.87239C6.99918 7.63802 5.68527 8.11802 4.74485 8.48739C3.80634 8.85489 2.02126 9.90114 0.772472 12.6818C-0.476319 15.4605 0.176806 19.863 0.644145 21.2318C1.11148 22.5986 1.84122 24.8393 3.08235 26.4743C4.18558 28.3193 5.64888 29.5999 6.25987 30.0349C6.87086 30.4699 8.59465 30.7586 9.78981 30.1605C10.7513 29.583 12.4866 29.2511 13.1723 29.2755C13.856 29.2999 15.2044 29.5643 16.5854 30.2861C17.679 30.6555 18.7133 30.5018 19.7495 30.0893C20.7857 29.6749 22.2854 28.1036 24.036 24.918C24.7006 23.4368 25.0032 22.6361 24.9419 22.5143Z" fill="white"/>
<path d="M18.5945 0.514891C18.5294 0.443641 16.1832 0.543016 14.1414 2.71239C12.0997 4.87989 12.4138 7.36614 12.4598 7.42989C12.5057 7.49364 15.3711 7.59302 17.2002 5.07114C19.0293 2.54927 18.6597 0.588016 18.5945 0.514891ZM24.9419 22.5143C24.85 22.3343 20.4888 20.2005 20.8948 16.098C21.3009 11.9936 24.103 10.8686 24.1471 10.7468C24.1911 10.6249 23.0036 9.26552 21.7453 8.57739C20.8213 8.09224 19.7988 7.81428 18.7516 7.76364C18.5447 7.75802 17.8265 7.58552 16.3498 7.98114C15.3768 8.24177 13.1838 9.08552 12.5804 9.11927C11.9752 9.15302 10.1748 8.14052 8.2384 7.87239C6.99918 7.63802 5.68527 8.11802 4.74485 8.48739C3.80634 8.85489 2.02126 9.90114 0.772472 12.6818C-0.476319 15.4605 0.176806 19.863 0.644145 21.2318C1.11148 22.5986 1.84122 24.8393 3.08235 26.4743C4.18558 28.3193 5.64888 29.5999 6.25987 30.0349C6.87086 30.4699 8.59465 30.7586 9.78981 30.1605C10.7513 29.583 12.4866 29.2511 13.1723 29.2755C13.856 29.2999 15.2044 29.5643 16.5854 30.2861C17.679 30.6555 18.7133 30.5018 19.7495 30.0893C20.7857 29.6749 22.2854 28.1036 24.036 24.918C24.7006 23.4368 25.0032 22.6361 24.9419 22.5143Z" fill="white"/>
</svg>
