<svg width="500" height="500" viewBox="0 0 500 500" fill="none" xmlns="http://www.w3.org/2000/svg">
<rect width="500" height="500" rx="20" fill="#00C2E8" fill-opacity="0.2"/>
<rect width="500" height="500" rx="20" fill="white"/>
<path d="M92.6971 139.9L80.5471 163.4V175H71.9971V163.4L59.8471 139.9H69.5471L76.3471 154.6L83.0971 139.9H92.6971ZM108.842 175.4C106.109 175.4 103.642 174.817 101.442 173.65C99.2753 172.483 97.5587 170.817 96.292 168.65C95.0587 166.483 94.442 163.95 94.442 161.05C94.442 158.183 95.0753 155.667 96.342 153.5C97.6087 151.3 99.342 149.617 101.542 148.45C103.742 147.283 106.209 146.7 108.942 146.7C111.675 146.7 114.142 147.283 116.342 148.45C118.542 149.617 120.275 151.3 121.542 153.5C122.809 155.667 123.442 158.183 123.442 161.05C123.442 163.917 122.792 166.45 121.492 168.65C120.225 170.817 118.475 172.483 116.242 173.65C114.042 174.817 111.575 175.4 108.842 175.4ZM108.842 168C110.475 168 111.859 167.4 112.992 166.2C114.159 165 114.742 163.283 114.742 161.05C114.742 158.817 114.175 157.1 113.042 155.9C111.942 154.7 110.575 154.1 108.942 154.1C107.275 154.1 105.892 154.7 104.792 155.9C103.692 157.067 103.142 158.783 103.142 161.05C103.142 163.283 103.675 165 104.742 166.2C105.842 167.4 107.209 168 108.842 168ZM155.528 147.1V175H146.978V171.2C146.111 172.433 144.928 173.433 143.428 174.2C141.961 174.933 140.328 175.3 138.528 175.3C136.395 175.3 134.511 174.833 132.878 173.9C131.245 172.933 129.978 171.55 129.078 169.75C128.178 167.95 127.728 165.833 127.728 163.4V147.1H136.228V162.25C136.228 164.117 136.711 165.567 137.678 166.6C138.645 167.633 139.945 168.15 141.578 168.15C143.245 168.15 144.561 167.633 145.528 166.6C146.495 165.567 146.978 164.117 146.978 162.25V147.1H155.528ZM170.219 151.75C171.219 150.217 172.469 149.017 173.969 148.15C175.469 147.25 177.136 146.8 178.969 146.8V155.85H176.619C174.486 155.85 172.886 156.317 171.819 157.25C170.753 158.15 170.219 159.75 170.219 162.05V175H161.669V147.1H170.219V151.75ZM205.002 175.4C202.568 175.4 200.402 174.983 198.502 174.15C196.602 173.317 195.102 172.183 194.002 170.75C192.902 169.283 192.285 167.65 192.152 165.85H200.602C200.702 166.817 201.152 167.6 201.952 168.2C202.752 168.8 203.735 169.1 204.902 169.1C205.968 169.1 206.785 168.9 207.352 168.5C207.952 168.067 208.252 167.517 208.252 166.85C208.252 166.05 207.835 165.467 207.002 165.1C206.168 164.7 204.818 164.267 202.952 163.8C200.952 163.333 199.285 162.85 197.952 162.35C196.618 161.817 195.468 161 194.502 159.9C193.535 158.767 193.052 157.25 193.052 155.35C193.052 153.75 193.485 152.3 194.352 151C195.252 149.667 196.552 148.617 198.252 147.85C199.985 147.083 202.035 146.7 204.402 146.7C207.902 146.7 210.652 147.567 212.652 149.3C214.685 151.033 215.852 153.333 216.152 156.2H208.252C208.118 155.233 207.685 154.467 206.952 153.9C206.252 153.333 205.318 153.05 204.152 153.05C203.152 153.05 202.385 153.25 201.852 153.65C201.318 154.017 201.052 154.533 201.052 155.2C201.052 156 201.468 156.6 202.302 157C203.168 157.4 204.502 157.8 206.302 158.2C208.368 158.733 210.052 159.267 211.352 159.8C212.652 160.3 213.785 161.133 214.752 162.3C215.752 163.433 216.268 164.967 216.302 166.9C216.302 168.533 215.835 170 214.902 171.3C214.002 172.567 212.685 173.567 210.952 174.3C209.252 175.033 207.268 175.4 205.002 175.4ZM219.833 161.05C219.833 158.15 220.416 155.617 221.583 153.45C222.783 151.283 224.433 149.617 226.533 148.45C228.666 147.283 231.099 146.7 233.833 146.7C237.333 146.7 240.249 147.617 242.583 149.45C244.949 151.283 246.499 153.867 247.233 157.2H238.133C237.366 155.067 235.883 154 233.683 154C232.116 154 230.866 154.617 229.933 155.85C228.999 157.05 228.533 158.783 228.533 161.05C228.533 163.317 228.999 165.067 229.933 166.3C230.866 167.5 232.116 168.1 233.683 168.1C235.883 168.1 237.366 167.033 238.133 164.9H247.233C246.499 168.167 244.949 170.733 242.583 172.6C240.216 174.467 237.299 175.4 233.833 175.4C231.099 175.4 228.666 174.817 226.533 173.65C224.433 172.483 222.783 170.817 221.583 168.65C220.416 166.483 219.833 163.95 219.833 161.05ZM268.956 146.8C272.156 146.8 274.723 147.867 276.656 150C278.589 152.1 279.556 155 279.556 158.7V175H271.056V159.85C271.056 157.983 270.573 156.533 269.606 155.5C268.639 154.467 267.339 153.95 265.706 153.95C264.073 153.95 262.773 154.467 261.806 155.5C260.839 156.533 260.356 157.983 260.356 159.85V175H251.806V138H260.356V150.85C261.223 149.617 262.406 148.633 263.906 147.9C265.406 147.167 267.089 146.8 268.956 146.8ZM311.797 160.6C311.797 161.4 311.747 162.233 311.647 163.1H292.297C292.431 164.833 292.981 166.167 293.947 167.1C294.947 168 296.164 168.45 297.597 168.45C299.731 168.45 301.214 167.55 302.047 165.75H311.147C310.681 167.583 309.831 169.233 308.597 170.7C307.397 172.167 305.881 173.317 304.047 174.15C302.214 174.983 300.164 175.4 297.897 175.4C295.164 175.4 292.731 174.817 290.597 173.65C288.464 172.483 286.797 170.817 285.597 168.65C284.397 166.483 283.797 163.95 283.797 161.05C283.797 158.15 284.381 155.617 285.547 153.45C286.747 151.283 288.414 149.617 290.547 148.45C292.681 147.283 295.131 146.7 297.897 146.7C300.597 146.7 302.997 147.267 305.097 148.4C307.197 149.533 308.831 151.15 309.997 153.25C311.197 155.35 311.797 157.8 311.797 160.6ZM303.047 158.35C303.047 156.883 302.547 155.717 301.547 154.85C300.547 153.983 299.297 153.55 297.797 153.55C296.364 153.55 295.147 153.967 294.147 154.8C293.181 155.633 292.581 156.817 292.347 158.35H303.047ZM314.608 161C314.608 158.133 315.141 155.617 316.208 153.45C317.308 151.283 318.791 149.617 320.658 148.45C322.525 147.283 324.608 146.7 326.908 146.7C328.741 146.7 330.408 147.083 331.908 147.85C333.441 148.617 334.641 149.65 335.508 150.95V138H344.058V175H335.508V171C334.708 172.333 333.558 173.4 332.058 174.2C330.591 175 328.875 175.4 326.908 175.4C324.608 175.4 322.525 174.817 320.658 173.65C318.791 172.45 317.308 170.767 316.208 168.6C315.141 166.4 314.608 163.867 314.608 161ZM335.508 161.05C335.508 158.917 334.908 157.233 333.708 156C332.541 154.767 331.108 154.15 329.408 154.15C327.708 154.15 326.258 154.767 325.058 156C323.891 157.2 323.308 158.867 323.308 161C323.308 163.133 323.891 164.833 325.058 166.1C326.258 167.333 327.708 167.95 329.408 167.95C331.108 167.95 332.541 167.333 333.708 166.1C334.908 164.867 335.508 163.183 335.508 161.05ZM377.794 147.1V175H369.244V171.2C368.377 172.433 367.194 173.433 365.694 174.2C364.227 174.933 362.594 175.3 360.794 175.3C358.66 175.3 356.777 174.833 355.144 173.9C353.51 172.933 352.244 171.55 351.344 169.75C350.444 167.95 349.994 165.833 349.994 163.4V147.1H358.494V162.25C358.494 164.117 358.977 165.567 359.944 166.6C360.91 167.633 362.21 168.15 363.844 168.15C365.51 168.15 366.827 167.633 367.794 166.6C368.76 165.567 369.244 164.117 369.244 162.25V147.1H377.794ZM392.485 138V175H383.935V138H392.485ZM424.981 160.6C424.981 161.4 424.931 162.233 424.831 163.1H405.481C405.614 164.833 406.164 166.167 407.131 167.1C408.131 168 409.348 168.45 410.781 168.45C412.914 168.45 414.398 167.55 415.231 165.75H424.331C423.864 167.583 423.014 169.233 421.781 170.7C420.581 172.167 419.064 173.317 417.231 174.15C415.398 174.983 413.348 175.4 411.081 175.4C408.348 175.4 405.914 174.817 403.781 173.65C401.648 172.483 399.981 170.817 398.781 168.65C397.581 166.483 396.981 163.95 396.981 161.05C396.981 158.15 397.564 155.617 398.731 153.45C399.931 151.283 401.598 149.617 403.731 148.45C405.864 147.283 408.314 146.7 411.081 146.7C413.781 146.7 416.181 147.267 418.281 148.4C420.381 149.533 422.014 151.15 423.181 153.25C424.381 155.35 424.981 157.8 424.981 160.6ZM416.231 158.35C416.231 156.883 415.731 155.717 414.731 154.85C413.731 153.983 412.481 153.55 410.981 153.55C409.548 153.55 408.331 153.967 407.331 154.8C406.364 155.633 405.764 156.817 405.531 158.35H416.231ZM433.492 175.4C431.992 175.4 430.758 174.967 429.792 174.1C428.858 173.2 428.392 172.1 428.392 170.8C428.392 169.467 428.858 168.35 429.792 167.45C430.758 166.55 431.992 166.1 433.492 166.1C434.958 166.1 436.158 166.55 437.092 167.45C438.058 168.35 438.542 169.467 438.542 170.8C438.542 172.1 438.058 173.2 437.092 174.1C436.158 174.967 434.958 175.4 433.492 175.4ZM152.181 222.1L134.681 263.25H125.481L131.881 249.05L120.531 222.1H130.081L136.531 239.55L142.931 222.1H152.181ZM167.973 250.4C165.24 250.4 162.773 249.817 160.573 248.65C158.406 247.483 156.69 245.817 155.423 243.65C154.19 241.483 153.573 238.95 153.573 236.05C153.573 233.183 154.206 230.667 155.473 228.5C156.74 226.3 158.473 224.617 160.673 223.45C162.873 222.283 165.34 221.7 168.073 221.7C170.806 221.7 173.273 222.283 175.473 223.45C177.673 224.617 179.406 226.3 180.673 228.5C181.94 230.667 182.573 233.183 182.573 236.05C182.573 238.917 181.923 241.45 180.623 243.65C179.356 245.817 177.606 247.483 175.373 248.65C173.173 249.817 170.706 250.4 167.973 250.4ZM167.973 243C169.606 243 170.99 242.4 172.123 241.2C173.29 240 173.873 238.283 173.873 236.05C173.873 233.817 173.306 232.1 172.173 230.9C171.073 229.7 169.706 229.1 168.073 229.1C166.406 229.1 165.023 229.7 163.923 230.9C162.823 232.067 162.273 233.783 162.273 236.05C162.273 238.283 162.806 240 163.873 241.2C164.973 242.4 166.34 243 167.973 243ZM214.659 222.1V250H206.109V246.2C205.242 247.433 204.059 248.433 202.559 249.2C201.092 249.933 199.459 250.3 197.659 250.3C195.525 250.3 193.642 249.833 192.009 248.9C190.375 247.933 189.109 246.55 188.209 244.75C187.309 242.95 186.859 240.833 186.859 238.4V222.1H195.359V237.25C195.359 239.117 195.842 240.567 196.809 241.6C197.775 242.633 199.075 243.15 200.709 243.15C202.375 243.15 203.692 242.633 204.659 241.6C205.625 240.567 206.109 239.117 206.109 237.25V222.1H214.659ZM229.35 226.75C230.35 225.217 231.6 224.017 233.1 223.15C234.6 222.25 236.267 221.8 238.1 221.8V230.85H235.75C233.617 230.85 232.017 231.317 230.95 232.25C229.884 233.15 229.35 234.75 229.35 237.05V250H220.8V222.1H229.35V226.75ZM266.783 229.2H262.183V250H253.633V229.2H250.533V222.1H253.633V221.3C253.633 217.867 254.616 215.267 256.583 213.5C258.549 211.7 261.433 210.8 265.233 210.8C265.866 210.8 266.333 210.817 266.633 210.85V218.1C264.999 218 263.849 218.233 263.183 218.8C262.516 219.367 262.183 220.383 262.183 221.85V222.1H266.783V229.2ZM283.5 250.4C280.767 250.4 278.3 249.817 276.1 248.65C273.934 247.483 272.217 245.817 270.95 243.65C269.717 241.483 269.1 238.95 269.1 236.05C269.1 233.183 269.734 230.667 271 228.5C272.267 226.3 274 224.617 276.2 223.45C278.4 222.283 280.867 221.7 283.6 221.7C286.334 221.7 288.8 222.283 291 223.45C293.2 224.617 294.934 226.3 296.2 228.5C297.467 230.667 298.1 233.183 298.1 236.05C298.1 238.917 297.45 241.45 296.15 243.65C294.884 245.817 293.134 247.483 290.9 248.65C288.7 249.817 286.234 250.4 283.5 250.4ZM283.5 243C285.134 243 286.517 242.4 287.65 241.2C288.817 240 289.4 238.283 289.4 236.05C289.4 233.817 288.834 232.1 287.7 230.9C286.6 229.7 285.234 229.1 283.6 229.1C281.934 229.1 280.55 229.7 279.45 230.9C278.35 232.067 277.8 233.783 277.8 236.05C277.8 238.283 278.334 240 279.4 241.2C280.5 242.4 281.867 243 283.5 243ZM315.336 250.4C312.603 250.4 310.136 249.817 307.936 248.65C305.769 247.483 304.053 245.817 302.786 243.65C301.553 241.483 300.936 238.95 300.936 236.05C300.936 233.183 301.569 230.667 302.836 228.5C304.103 226.3 305.836 224.617 308.036 223.45C310.236 222.283 312.703 221.7 315.436 221.7C318.169 221.7 320.636 222.283 322.836 223.45C325.036 224.617 326.769 226.3 328.036 228.5C329.303 230.667 329.936 233.183 329.936 236.05C329.936 238.917 329.286 241.45 327.986 243.65C326.719 245.817 324.969 247.483 322.736 248.65C320.536 249.817 318.069 250.4 315.336 250.4ZM315.336 243C316.969 243 318.353 242.4 319.486 241.2C320.653 240 321.236 238.283 321.236 236.05C321.236 233.817 320.669 232.1 319.536 230.9C318.436 229.7 317.069 229.1 315.436 229.1C313.769 229.1 312.386 229.7 311.286 230.9C310.186 232.067 309.636 233.783 309.636 236.05C309.636 238.283 310.169 240 311.236 241.2C312.336 242.4 313.703 243 315.336 243ZM332.772 236C332.772 233.133 333.305 230.617 334.372 228.45C335.472 226.283 336.955 224.617 338.822 223.45C340.689 222.283 342.772 221.7 345.072 221.7C346.905 221.7 348.572 222.083 350.072 222.85C351.605 223.617 352.805 224.65 353.672 225.95V213H362.222V250H353.672V246C352.872 247.333 351.722 248.4 350.222 249.2C348.755 250 347.039 250.4 345.072 250.4C342.772 250.4 340.689 249.817 338.822 248.65C336.955 247.45 335.472 245.767 334.372 243.6C333.305 241.4 332.772 238.867 332.772 236ZM353.672 236.05C353.672 233.917 353.072 232.233 351.872 231C350.705 229.767 349.272 229.15 347.572 229.15C345.872 229.15 344.422 229.767 343.222 231C342.055 232.2 341.472 233.867 341.472 236C341.472 238.133 342.055 239.833 343.222 241.1C344.422 242.333 345.872 242.95 347.572 242.95C349.272 242.95 350.705 242.333 351.872 241.1C353.072 239.867 353.672 238.183 353.672 236.05ZM372.408 250.4C370.908 250.4 369.674 249.967 368.708 249.1C367.774 248.2 367.308 247.1 367.308 245.8C367.308 244.467 367.774 243.35 368.708 242.45C369.674 241.55 370.908 241.1 372.408 241.1C373.874 241.1 375.074 241.55 376.008 242.45C376.974 243.35 377.458 244.467 377.458 245.8C377.458 247.1 376.974 248.2 376.008 249.1C375.074 249.967 373.874 250.4 372.408 250.4ZM105.33 297.1L87.8305 338.25H78.6305L85.0305 324.05L73.6805 297.1H83.2305L89.6805 314.55L96.0805 297.1H105.33ZM121.122 325.4C118.389 325.4 115.922 324.817 113.722 323.65C111.556 322.483 109.839 320.817 108.572 318.65C107.339 316.483 106.722 313.95 106.722 311.05C106.722 308.183 107.356 305.667 108.622 303.5C109.889 301.3 111.622 299.617 113.822 298.45C116.022 297.283 118.489 296.7 121.222 296.7C123.956 296.7 126.422 297.283 128.622 298.45C130.822 299.617 132.556 301.3 133.822 303.5C135.089 305.667 135.722 308.183 135.722 311.05C135.722 313.917 135.072 316.45 133.772 318.65C132.506 320.817 130.756 322.483 128.522 323.65C126.322 324.817 123.856 325.4 121.122 325.4ZM121.122 318C122.756 318 124.139 317.4 125.272 316.2C126.439 315 127.022 313.283 127.022 311.05C127.022 308.817 126.456 307.1 125.322 305.9C124.222 304.7 122.856 304.1 121.222 304.1C119.556 304.1 118.172 304.7 117.072 305.9C115.972 307.067 115.422 308.783 115.422 311.05C115.422 313.283 115.956 315 117.022 316.2C118.122 317.4 119.489 318 121.122 318ZM167.808 297.1V325H159.258V321.2C158.392 322.433 157.208 323.433 155.708 324.2C154.242 324.933 152.608 325.3 150.808 325.3C148.675 325.3 146.792 324.833 145.158 323.9C143.525 322.933 142.258 321.55 141.358 319.75C140.458 317.95 140.008 315.833 140.008 313.4V297.1H148.508V312.25C148.508 314.117 148.992 315.567 149.958 316.6C150.925 317.633 152.225 318.15 153.858 318.15C155.525 318.15 156.842 317.633 157.808 316.6C158.775 315.567 159.258 314.117 159.258 312.25V297.1H167.808ZM182.5 301.75C183.5 300.217 184.75 299.017 186.25 298.15C187.75 297.25 189.416 296.8 191.25 296.8V305.85H188.9C186.766 305.85 185.166 306.317 184.1 307.25C183.033 308.15 182.5 309.75 182.5 312.05V325H173.95V297.1H182.5V301.75ZM204.232 311C204.232 308.133 204.765 305.617 205.832 303.45C206.932 301.283 208.415 299.617 210.282 298.45C212.149 297.283 214.232 296.7 216.532 296.7C218.365 296.7 220.032 297.083 221.532 297.85C223.065 298.617 224.265 299.65 225.132 300.95V288H233.682V325H225.132V321C224.332 322.333 223.182 323.4 221.682 324.2C220.215 325 218.499 325.4 216.532 325.4C214.232 325.4 212.149 324.817 210.282 323.65C208.415 322.45 206.932 320.767 205.832 318.6C204.765 316.4 204.232 313.867 204.232 311ZM225.132 311.05C225.132 308.917 224.532 307.233 223.332 306C222.165 304.767 220.732 304.15 219.032 304.15C217.332 304.15 215.882 304.767 214.682 306C213.515 307.2 212.932 308.867 212.932 311C212.932 313.133 213.515 314.833 214.682 316.1C215.882 317.333 217.332 317.95 219.032 317.95C220.732 317.95 222.165 317.333 223.332 316.1C224.532 314.867 225.132 313.183 225.132 311.05ZM266.168 310.6C266.168 311.4 266.118 312.233 266.018 313.1H246.668C246.801 314.833 247.351 316.167 248.318 317.1C249.318 318 250.534 318.45 251.968 318.45C254.101 318.45 255.584 317.55 256.418 315.75H265.518C265.051 317.583 264.201 319.233 262.968 320.7C261.768 322.167 260.251 323.317 258.418 324.15C256.584 324.983 254.534 325.4 252.268 325.4C249.534 325.4 247.101 324.817 244.968 323.65C242.834 322.483 241.168 320.817 239.968 318.65C238.768 316.483 238.168 313.95 238.168 311.05C238.168 308.15 238.751 305.617 239.918 303.45C241.118 301.283 242.784 299.617 244.918 298.45C247.051 297.283 249.501 296.7 252.268 296.7C254.968 296.7 257.368 297.267 259.468 298.4C261.568 299.533 263.201 301.15 264.368 303.25C265.568 305.35 266.168 307.8 266.168 310.6ZM257.418 308.35C257.418 306.883 256.918 305.717 255.918 304.85C254.918 303.983 253.668 303.55 252.168 303.55C250.734 303.55 249.518 303.967 248.518 304.8C247.551 305.633 246.951 306.817 246.718 308.35H257.418ZM279.228 288V325H270.678V288H279.228ZM289.724 294.2C288.224 294.2 286.991 293.767 286.024 292.9C285.091 292 284.624 290.9 284.624 289.6C284.624 288.267 285.091 287.167 286.024 286.3C286.991 285.4 288.224 284.95 289.724 284.95C291.191 284.95 292.391 285.4 293.324 286.3C294.291 287.167 294.774 288.267 294.774 289.6C294.774 290.9 294.291 292 293.324 292.9C292.391 293.767 291.191 294.2 289.724 294.2ZM293.974 297.1V325H285.424V297.1H293.974ZM312.72 317L318.77 297.1H327.87L317.97 325H307.42L297.52 297.1H306.67L312.72 317ZM357.769 310.6C357.769 311.4 357.719 312.233 357.619 313.1H338.269C338.402 314.833 338.952 316.167 339.919 317.1C340.919 318 342.136 318.45 343.569 318.45C345.702 318.45 347.186 317.55 348.019 315.75H357.119C356.652 317.583 355.802 319.233 354.569 320.7C353.369 322.167 351.852 323.317 350.019 324.15C348.186 324.983 346.136 325.4 343.869 325.4C341.136 325.4 338.702 324.817 336.569 323.65C334.436 322.483 332.769 320.817 331.569 318.65C330.369 316.483 329.769 313.95 329.769 311.05C329.769 308.15 330.352 305.617 331.519 303.45C332.719 301.283 334.386 299.617 336.519 298.45C338.652 297.283 341.102 296.7 343.869 296.7C346.569 296.7 348.969 297.267 351.069 298.4C353.169 299.533 354.802 301.15 355.969 303.25C357.169 305.35 357.769 307.8 357.769 310.6ZM349.019 308.35C349.019 306.883 348.519 305.717 347.519 304.85C346.519 303.983 345.269 303.55 343.769 303.55C342.336 303.55 341.119 303.967 340.119 304.8C339.152 305.633 338.552 306.817 338.319 308.35H349.019ZM370.83 301.75C371.83 300.217 373.08 299.017 374.58 298.15C376.08 297.25 377.746 296.8 379.58 296.8V305.85H377.23C375.096 305.85 373.496 306.317 372.43 307.25C371.363 308.15 370.83 309.75 370.83 312.05V325H362.28V297.1H370.83V301.75ZM412.166 297.1L394.666 338.25H385.466L391.866 324.05L380.516 297.1H390.066L396.516 314.55L402.916 297.1H412.166ZM419.258 325.4C417.758 325.4 416.525 324.967 415.558 324.1C414.625 323.2 414.158 322.1 414.158 320.8C414.158 319.467 414.625 318.35 415.558 317.45C416.525 316.55 417.758 316.1 419.258 316.1C420.725 316.1 421.925 316.55 422.858 317.45C423.825 318.35 424.308 319.467 424.308 320.8C424.308 322.1 423.825 323.2 422.858 324.1C421.925 324.967 420.725 325.4 419.258 325.4Z" fill="#00C2E8"/>
<path d="M420.333 97.6667C438.743 97.6667 453.667 82.7428 453.667 64.3333C453.667 45.9238 438.743 31 420.333 31C401.924 31 387 45.9238 387 64.3333C387 82.7428 401.924 97.6667 420.333 97.6667Z" stroke="#00C2E8" stroke-width="2" stroke-linecap="round" stroke-linejoin="round"/>
<path d="M420.333 54.3334V74.3334L433.667 81" stroke="#00C2E8" stroke-width="2" stroke-linecap="round" stroke-linejoin="round"/>
<path d="M207.333 120.667C225.743 120.667 240.667 105.743 240.667 87.3333C240.667 68.9238 225.743 54 207.333 54C188.924 54 174 68.9238 174 87.3333C174 105.743 188.924 120.667 207.333 120.667Z" stroke="#00C2E8" stroke-width="2" stroke-linecap="round" stroke-linejoin="round"/>
<path d="M207.333 77.3334V97.3334L220.667 104" stroke="#00C2E8" stroke-width="2" stroke-linecap="round" stroke-linejoin="round"/>
<path d="M339.333 457.667C357.743 457.667 372.667 442.743 372.667 424.333C372.667 405.924 357.743 391 339.333 391C320.924 391 306 405.924 306 424.333C306 442.743 320.924 457.667 339.333 457.667Z" stroke="#00C2E8" stroke-width="2" stroke-linecap="round" stroke-linejoin="round"/>
<path d="M339.333 414.333V434.333L352.667 441" stroke="#00C2E8" stroke-width="2" stroke-linecap="round" stroke-linejoin="round"/>
</svg>
