<?xml version="1.0" encoding="UTF-8"?><svg id="Trees" xmlns="http://www.w3.org/2000/svg" viewBox="0 0 500 500"><defs><style>.cls-1,.cls-2,.cls-3{fill:#fff;}.cls-4,.cls-5,.cls-6,.cls-7,.cls-3{stroke-width:.75px;}.cls-4,.cls-5,.cls-8{stroke-miterlimit:10;}.cls-4,.cls-6,.cls-7,.cls-3{stroke:#000;stroke-linecap:round;}.cls-4,.cls-7{fill:none;}.cls-2{opacity:.7;}.cls-9{opacity:.3;}.cls-5,.cls-8{fill:#5cbf6c;stroke:#263238;}.cls-6,.cls-7,.cls-3{stroke-linejoin:round;}.cls-10{fill:#92e3a9;}.cls-8{stroke-width:.37px;}.cls-11{fill:#263238;}</style></defs><g><path class="cls-10" d="M404.56,307.34c-11.98,27.96-35.17,57.74-66.16,65.41-46.83,11.59-54.12,48.55-136.66,41.16-12.87-1.15-24.7-3.53-35.51-6.95-5.81-1.84-11.33-3.98-16.55-6.39-47.39-21.87-70.54-66.14-70.49-111.31,.06-59.41,42.76-85.69,70.42-100.95,27.67-15.26,63.11-77.82,144.31-71.2,12.38,1.02,24.67,3.3,36.51,7.12,27.01,8.71,54.06,26.41,69.08,51.13,1.13,1.86,2.2,3.75,3.22,5.68,19.89,37.73,18.17,88.17,1.84,126.29Z"/><path class="cls-2" d="M404.56,307.34c-11.98,27.96-35.17,57.74-66.16,65.41-46.83,11.59-54.12,48.55-136.66,41.16-12.87-1.15-24.7-3.53-35.51-6.95-5.81-1.84-11.33-3.98-16.55-6.39-47.39-21.87-70.54-66.14-70.49-111.31,.06-59.41,42.76-85.69,70.42-100.95,27.67-15.26,63.11-77.82,144.31-71.2,12.38,1.02,24.67,3.3,36.51,7.12,27.01,8.71,54.06,26.41,69.08,51.13,1.13,1.86,2.2,3.75,3.22,5.68,19.89,37.73,18.17,88.17,1.84,126.29Z"/></g><line class="cls-7" x1="81.24" y1="391.99" x2="419.3" y2="391.99"/><g><path class="cls-11" d="M87.69,375.32c.56,.24,1.93,.21,1.93,.21,.01,0-.29-.9-.32-.95-.3-.63-1.25-1.67-2.03-1.56-.56,.08-.87,.63-.74,1.16,.13,.54,.68,.93,1.16,1.14Z"/><path class="cls-11" d="M88.16,379.29c.58,.08,1.8-.27,1.9-.3,.19,.68,.45,1.37,.74,2.05,.17,.39,.35,.78,.54,1.16-.11-.16-.21-.31-.23-.33-.46-.53-1.65-1.28-2.37-.97-.52,.22-.67,.84-.41,1.31,.27,.48,.9,.72,1.42,.8,.52,.08,1.57-.21,1.85-.28,.07,.15,.14,.3,.22,.44,.35,.71,.71,1.41,1.04,2.11,.12,.25,.22,.49,.33,.74-.1-.15-.18-.27-.2-.28-.46-.53-1.65-1.28-2.37-.97-.52,.22-.67,.84-.41,1.31,.27,.48,.9,.72,1.42,.8,.5,.07,1.47-.18,1.8-.27,.1,.26,.2,.51,.29,.76,.06,.17,.12,.34,.17,.51,.05,.17,.1,.35,.14,.52,.08,.33,.16,.68,.23,1,.05,.23,.09,.45,.14,.66-.11-.25-.34-.73-.37-.76-.37-.59-1.44-1.51-2.19-1.32-.55,.14-.79,.73-.6,1.24,.19,.52,.78,.85,1.28,1,.55,.17,1.76,.01,1.91,0,.07,.36,.14,.72,.2,1.05,.04,.25,.08,.49,.12,.71h.49c-.05-.25-.1-.52-.15-.8-.07-.37-.16-.76-.25-1.16,.09-.04,.61-.25,1.07-.5,.4,.43,1.42,.94,1.56,1-.14,.34-.28,.67-.41,.99-.07,.16-.14,.32-.21,.48h.51c.04-.1,.08-.19,.12-.3,.14-.35,.29-.72,.44-1.11,.15,.03,1.35,.27,1.91,.15,.51-.11,1.12-.4,1.35-.9,.22-.49,.02-1.1-.51-1.28-.74-.25-1.87,.59-2.28,1.15-.02,.03-.25,.42-.39,.67,.06-.16,.12-.31,.18-.47,.12-.32,.23-.65,.34-1l.15-.52c.06-.17,.09-.36,.14-.54,.1-.42,.18-.86,.25-1.29,.28,.1,1.29,.45,1.81,.42,.52-.04,1.17-.23,1.47-.69,.29-.45,.19-1.08-.31-1.34-.69-.36-1.94,.3-2.43,.79-.03,.03-.35,.42-.51,.64,.04-.26,.08-.53,.12-.8,.1-.77,.17-1.56,.25-2.35,.02-.24,.05-.48,.07-.72,.1,.04,1.29,.48,1.87,.44,.52-.04,1.17-.23,1.47-.69,.29-.45,.19-1.08-.31-1.34-.69-.36-1.94,.3-2.43,.79-.04,.04-.49,.6-.6,.75,.06-.53,.12-1.05,.2-1.57,.11-.71,.26-1.4,.45-2.06,.05,.02,1.29,.49,1.88,.44,.52-.04,1.17-.23,1.47-.69,.29-.45,.19-1.08-.31-1.34-.69-.36-1.94,.3-2.43,.79-.04,.04-.53,.65-.61,.76,.01-.04,.02-.08,.03-.12,.21-.7,.51-1.35,.82-1.95,.18-.35,.37-.67,.56-.98,.22,.11,1.24,.61,1.78,.63,.52,.02,1.19-.1,1.54-.52,.34-.42,.31-1.05-.16-1.37-.65-.43-1.96,.09-2.51,.52-.03,.02-.3,.3-.5,.5,.09-.14,.18-.28,.26-.41,.33-.49,.66-.92,.95-1.3,.17-.21,.33-.4,.48-.58,.27,0,1.38-.04,1.86-.27,.47-.22,1.01-.63,1.12-1.17,.11-.53-.21-1.08-.77-1.14-.78-.08-1.7,.98-1.98,1.62-.02,.06-.31,.96-.29,.96h.02c-.15,.17-.3,.35-.47,.55-.3,.37-.64,.8-.98,1.28-.34,.49-.7,1.02-1.02,1.62-.32,.6-.64,1.25-.87,1.96v.02c0-.23-.01-.87-.02-.92-.09-.69-.67-1.98-1.44-2.12-.55-.1-1.02,.33-1.07,.87-.04,.55,.35,1.1,.74,1.45,.44,.39,1.65,.77,1.75,.8-.22,.68-.38,1.39-.51,2.12-.07,.42-.14,.84-.19,1.27,0-.2,0-.37-.01-.4-.09-.69-.67-1.98-1.44-2.12-.55-.1-1.02,.33-1.07,.87-.05,.55,.35,1.1,.74,1.45,.39,.35,1.42,.7,1.7,.78-.02,.16-.04,.33-.06,.49-.09,.78-.18,1.57-.3,2.33-.04,.27-.09,.53-.14,.8,0-.18,0-.32,0-.35-.09-.69-.67-1.98-1.44-2.12-.55-.1-1.02,.33-1.07,.87-.05,.55,.35,1.1,.74,1.45,.38,.34,1.32,.66,1.65,.77-.06,.27-.11,.54-.18,.8-.05,.18-.09,.35-.15,.52-.06,.17-.11,.34-.17,.51-.12,.32-.24,.66-.36,.97-.08,.22-.17,.42-.25,.63,.04-.27,.11-.79,.11-.84,.01-.46-.15-1.22-.48-1.75,0-.07,0-.14-.01-.2-.09-.53-.59-.93-1.13-.78-.75,.2-1.23,1.53-1.27,2.22,0,.04,.02,.49,.05,.77-.04-.16-.07-.32-.11-.49-.08-.33-.17-.66-.26-1.02-.05-.17-.1-.34-.16-.52-.05-.17-.12-.35-.18-.53-.15-.41-.32-.81-.5-1.22,.29-.07,1.33-.33,1.74-.65,.41-.32,.85-.84,.85-1.39,0-.54-.44-1.01-1-.95-.78,.08-1.45,1.32-1.59,2,0,.04-.05,.54-.07,.82-.11-.24-.22-.49-.34-.73-.35-.7-.72-1.4-1.09-2.09-.11-.21-.22-.43-.33-.64,.1-.02,1.34-.31,1.8-.67,.41-.32,.85-.84,.85-1.39,0-.54-.44-1.01-1-.95-.78,.08-1.45,1.32-1.59,2-.01,.05-.08,.77-.08,.96-.24-.47-.48-.94-.7-1.42-.3-.65-.56-1.31-.76-1.97,.05-.01,1.34-.3,1.82-.67,.41-.32,.85-.84,.85-1.39,0-.54-.44-1.01-1-.95-.78,.08-1.45,1.32-1.59,2-.01,.05-.08,.83-.08,.97-.01-.04-.03-.08-.04-.12-.21-.7-.32-1.41-.4-2.08-.04-.39-.06-.76-.07-1.12,.25-.03,1.37-.18,1.83-.46,.45-.27,.94-.74,.99-1.29,.06-.54-.33-1.05-.89-1.05-.78,0-1.59,1.15-1.8,1.82-.01,.04-.09,.42-.14,.69,0-.16,0-.33,0-.49,0-.59,.04-1.13,.08-1.61,.02-.27,.05-.52,.08-.75,.23-.16,1.13-.79,1.41-1.25,.27-.44,.49-1.09,.29-1.6-.2-.5-.77-.78-1.27-.52-.69,.36-.88,1.76-.76,2.44,.01,.06,.27,.97,.28,.96h.01c-.03,.21-.06,.45-.09,.71-.05,.48-.1,1.02-.11,1.61-.02,.59-.02,1.24,.05,1.92,.06,.68,.16,1.39,.35,2.11v.02c-.12-.19-.48-.72-.51-.76-.46-.53-1.65-1.28-2.37-.97-.52,.22-.67,.84-.41,1.31,.27,.48,.9,.72,1.42,.8Z"/><path class="cls-11" d="M101.56,375.62s.25-.91,.26-.97c.1-.69-.12-2.08-.83-2.42-.51-.24-1.07,.05-1.26,.56-.19,.52,.05,1.15,.33,1.59,.33,.51,1.49,1.24,1.49,1.24Z"/></g><g><path class="cls-11" d="M399.06,381.72c.35,.15,1.19,.13,1.19,.13,0,0-.18-.55-.2-.59-.19-.39-.77-1.03-1.25-.96-.34,.05-.53,.39-.46,.71,.08,.33,.42,.58,.71,.7Z"/><path class="cls-11" d="M399.35,384.17c.36,.05,1.11-.17,1.17-.18,.12,.42,.28,.85,.46,1.26,.1,.24,.22,.48,.33,.72-.07-.1-.13-.19-.14-.2-.28-.32-1.02-.79-1.46-.6-.32,.14-.41,.52-.25,.81,.16,.3,.56,.44,.87,.49,.32,.05,.97-.13,1.14-.17,.05,.09,.09,.18,.13,.27,.22,.43,.44,.87,.64,1.3,.07,.15,.14,.3,.2,.46-.06-.09-.11-.16-.12-.17-.28-.32-1.02-.79-1.46-.6-.32,.14-.41,.52-.25,.81,.16,.3,.56,.44,.87,.49,.31,.04,.91-.11,1.11-.17,.06,.16,.12,.32,.18,.47,.03,.11,.07,.21,.1,.32,.03,.11,.06,.21,.09,.32,.05,.21,.1,.42,.14,.62,.03,.14,.06,.27,.09,.41-.07-.15-.21-.45-.23-.47-.23-.36-.88-.93-1.35-.81-.34,.09-.49,.45-.37,.76,.12,.32,.48,.52,.79,.62,.34,.1,1.09,0,1.18,0,.04,.22,.09,.44,.12,.65,.03,.15,.05,.3,.07,.44h.3c-.03-.16-.06-.32-.09-.49-.04-.23-.1-.47-.15-.72,.06-.02,.38-.15,.66-.31,.25,.27,.88,.58,.96,.62-.09,.21-.17,.42-.26,.61-.04,.1-.09,.2-.13,.29h.32c.03-.06,.05-.12,.08-.18,.09-.21,.18-.44,.27-.68,.09,.02,.83,.17,1.18,.09,.31-.07,.69-.25,.83-.56,.14-.3,.01-.68-.31-.79-.46-.15-1.15,.36-1.41,.71-.02,.02-.15,.26-.24,.41,.04-.1,.07-.19,.11-.29,.07-.2,.14-.4,.21-.61l.1-.32c.03-.11,.06-.22,.09-.33,.06-.26,.11-.53,.16-.8,.17,.06,.79,.28,1.12,.26,.32-.02,.72-.14,.91-.42,.18-.28,.12-.67-.19-.83-.43-.22-1.19,.19-1.5,.49-.02,.02-.21,.26-.32,.4,.03-.16,.05-.32,.07-.49,.06-.48,.1-.96,.15-1.44,.01-.15,.03-.3,.05-.44,.06,.02,.79,.3,1.15,.27,.32-.02,.72-.14,.91-.42,.18-.28,.12-.67-.19-.83-.43-.22-1.19,.19-1.5,.49-.02,.02-.3,.37-.37,.46,.03-.33,.07-.65,.12-.97,.07-.44,.16-.86,.28-1.27,.03,.01,.79,.3,1.16,.27,.32-.02,.72-.14,.91-.42,.18-.28,.12-.67-.19-.83-.43-.22-1.19,.19-1.5,.49-.02,.02-.32,.4-.37,.47,0-.02,.01-.05,.02-.07,.13-.43,.31-.83,.5-1.2,.11-.21,.23-.41,.34-.6,.14,.07,.76,.37,1.1,.39,.32,.01,.73-.06,.95-.32,.21-.26,.19-.65-.1-.84-.4-.27-1.21,.05-1.54,.32-.02,.01-.19,.18-.31,.31,.05-.09,.11-.17,.16-.25,.2-.3,.4-.57,.59-.8,.1-.13,.2-.25,.29-.36,.17,0,.85-.02,1.15-.16,.29-.14,.62-.39,.69-.72,.07-.33-.13-.66-.48-.7-.48-.05-1.05,.6-1.22,1-.02,.03-.19,.59-.18,.59h.01c-.09,.1-.19,.21-.29,.34-.19,.23-.4,.49-.6,.79-.21,.3-.43,.63-.63,1-.2,.37-.39,.77-.54,1.21v.02c0-.14,0-.54-.01-.57-.06-.43-.41-1.22-.89-1.3-.34-.06-.63,.2-.66,.54-.03,.34,.22,.68,.46,.89,.27,.24,1.02,.47,1.08,.49-.13,.42-.24,.86-.32,1.31-.05,.26-.08,.52-.12,.78,0-.12,0-.23,0-.25-.06-.43-.41-1.22-.89-1.3-.34-.06-.63,.2-.66,.54-.03,.34,.22,.68,.46,.89,.24,.22,.88,.43,1.05,.48-.01,.1-.03,.2-.04,.3-.06,.48-.11,.96-.18,1.44-.02,.17-.05,.33-.08,.49,0-.11,0-.2,0-.21-.06-.43-.41-1.22-.89-1.3-.34-.06-.63,.2-.66,.54-.03,.34,.22,.68,.46,.89,.23,.21,.82,.41,1.02,.47-.04,.17-.07,.33-.11,.49-.03,.11-.05,.21-.09,.32l-.1,.32c-.07,.2-.15,.4-.22,.6-.05,.13-.1,.26-.15,.39,.03-.16,.07-.49,.07-.52,0-.29-.09-.75-.3-1.08,0-.04,0-.08,0-.13-.05-.33-.36-.57-.7-.48-.46,.12-.76,.94-.78,1.37,0,.03,.02,.3,.03,.48-.02-.1-.04-.2-.07-.3-.05-.21-.1-.41-.16-.63l-.1-.32c-.03-.11-.08-.22-.11-.33-.09-.25-.2-.5-.31-.75,.18-.04,.82-.21,1.07-.4,.25-.2,.52-.51,.52-.85,0-.33-.27-.62-.61-.58-.48,.05-.89,.81-.98,1.23,0,.03-.03,.34-.05,.51-.07-.15-.14-.3-.21-.45-.21-.43-.44-.86-.67-1.29-.07-.13-.14-.26-.21-.39,.06-.01,.83-.19,1.11-.41,.25-.2,.52-.51,.52-.85,0-.33-.27-.62-.61-.58-.48,.05-.89,.81-.98,1.23,0,.03-.05,.48-.05,.59-.15-.29-.3-.58-.43-.87-.18-.4-.34-.81-.47-1.21,.03,0,.83-.19,1.12-.41,.25-.2,.52-.51,.52-.85,0-.33-.27-.62-.61-.58-.48,.05-.89,.81-.98,1.23,0,.03-.05,.51-.05,.6,0-.02-.02-.05-.02-.07-.13-.43-.2-.87-.24-1.28-.03-.24-.04-.47-.05-.69,.15-.02,.84-.11,1.13-.28,.27-.17,.58-.45,.61-.79,.03-.33-.2-.65-.55-.65-.48,0-.98,.71-1.11,1.12,0,.02-.06,.26-.09,.43,0-.1,0-.21,0-.3,0-.36,.02-.7,.05-.99,.01-.17,.03-.32,.05-.46,.14-.1,.7-.49,.87-.77,.17-.27,.3-.67,.18-.99-.12-.31-.48-.48-.78-.32-.43,.22-.54,1.08-.47,1.51,0,.04,.17,.6,.17,.59h0c-.02,.13-.04,.28-.05,.44-.03,.29-.06,.63-.07,.99,0,.36,0,.76,.03,1.18,.04,.42,.1,.86,.22,1.3v.02c-.07-.12-.29-.44-.31-.47-.28-.32-1.02-.79-1.46-.6-.32,.14-.41,.52-.25,.81,.16,.3,.56,.44,.87,.49Z"/><path class="cls-11" d="M407.6,381.91s.15-.56,.16-.6c.06-.43-.08-1.28-.51-1.49-.31-.15-.66,.03-.77,.34-.12,.32,.03,.71,.21,.98,.2,.32,.92,.77,.92,.77Z"/></g><g><path class="cls-11" d="M137.68,381.72c.35,.15,1.19,.13,1.19,.13,0,0-.18-.55-.2-.59-.19-.39-.77-1.03-1.25-.96-.34,.05-.53,.39-.46,.71,.08,.33,.42,.58,.71,.7Z"/><path class="cls-11" d="M137.97,384.17c.36,.05,1.11-.17,1.17-.18,.12,.42,.28,.85,.46,1.26,.1,.24,.22,.48,.33,.72-.07-.1-.13-.19-.14-.2-.28-.32-1.02-.79-1.46-.6-.32,.14-.41,.52-.25,.81,.16,.3,.56,.44,.87,.49,.32,.05,.97-.13,1.14-.17,.05,.09,.09,.18,.13,.27,.22,.43,.44,.87,.64,1.3,.07,.15,.14,.3,.2,.46-.06-.09-.11-.16-.12-.17-.28-.32-1.02-.79-1.46-.6-.32,.14-.41,.52-.25,.81,.16,.3,.56,.44,.87,.49,.31,.04,.91-.11,1.11-.17,.06,.16,.12,.32,.18,.47,.03,.11,.07,.21,.1,.32,.03,.11,.06,.21,.09,.32,.05,.21,.1,.42,.14,.62,.03,.14,.06,.27,.09,.41-.07-.15-.21-.45-.23-.47-.23-.36-.88-.93-1.35-.81-.34,.09-.49,.45-.37,.76,.12,.32,.48,.52,.79,.62,.34,.1,1.09,0,1.18,0,.04,.22,.09,.44,.12,.65,.03,.15,.05,.3,.07,.44h.3c-.03-.16-.06-.32-.09-.49-.04-.23-.1-.47-.15-.72,.06-.02,.38-.15,.66-.31,.25,.27,.88,.58,.96,.62-.09,.21-.17,.42-.26,.61-.04,.1-.09,.2-.13,.29h.32c.03-.06,.05-.12,.08-.18,.09-.21,.18-.44,.27-.68,.09,.02,.83,.17,1.18,.09,.31-.07,.69-.25,.83-.56,.14-.3,.01-.68-.31-.79-.46-.15-1.15,.36-1.41,.71-.02,.02-.15,.26-.24,.41,.04-.1,.07-.19,.11-.29,.07-.2,.14-.4,.21-.61l.1-.32c.03-.11,.06-.22,.09-.33,.06-.26,.11-.53,.16-.8,.17,.06,.79,.28,1.12,.26,.32-.02,.72-.14,.91-.42,.18-.28,.12-.67-.19-.83-.43-.22-1.19,.19-1.5,.49-.02,.02-.21,.26-.32,.4,.03-.16,.05-.32,.07-.49,.06-.48,.1-.96,.15-1.44,.01-.15,.03-.3,.05-.44,.06,.02,.79,.3,1.15,.27,.32-.02,.72-.14,.91-.42,.18-.28,.12-.67-.19-.83-.43-.22-1.19,.19-1.5,.49-.02,.02-.3,.37-.37,.46,.03-.33,.07-.65,.12-.97,.07-.44,.16-.86,.28-1.27,.03,.01,.79,.3,1.16,.27,.32-.02,.72-.14,.91-.42,.18-.28,.12-.67-.19-.83-.43-.22-1.19,.19-1.5,.49-.02,.02-.32,.4-.37,.47,0-.02,.01-.05,.02-.07,.13-.43,.31-.83,.5-1.2,.11-.21,.23-.41,.34-.6,.14,.07,.76,.37,1.1,.39,.32,.01,.73-.06,.95-.32,.21-.26,.19-.65-.1-.84-.4-.27-1.21,.05-1.54,.32-.02,.01-.19,.18-.31,.31,.05-.09,.11-.17,.16-.25,.2-.3,.4-.57,.59-.8,.1-.13,.2-.25,.29-.36,.17,0,.85-.02,1.15-.16,.29-.14,.62-.39,.69-.72,.07-.33-.13-.66-.48-.7-.48-.05-1.05,.6-1.22,1-.02,.03-.19,.59-.18,.59h.01c-.09,.1-.19,.21-.29,.34-.19,.23-.4,.49-.6,.79-.21,.3-.43,.63-.63,1-.2,.37-.39,.77-.54,1.21v.02c0-.14,0-.54-.01-.57-.06-.43-.41-1.22-.89-1.3-.34-.06-.63,.2-.66,.54-.03,.34,.22,.68,.46,.89,.27,.24,1.02,.47,1.08,.49-.13,.42-.24,.86-.32,1.31-.05,.26-.08,.52-.12,.78,0-.12,0-.23,0-.25-.06-.43-.41-1.22-.89-1.3-.34-.06-.63,.2-.66,.54-.03,.34,.22,.68,.46,.89,.24,.22,.88,.43,1.05,.48-.01,.1-.03,.2-.04,.3-.06,.48-.11,.96-.18,1.44-.02,.17-.05,.33-.08,.49,0-.11,0-.2,0-.21-.06-.43-.41-1.22-.89-1.3-.34-.06-.63,.2-.66,.54-.03,.34,.22,.68,.46,.89,.23,.21,.82,.41,1.02,.47-.04,.17-.07,.33-.11,.49-.03,.11-.05,.21-.09,.32-.03,.11-.07,.21-.1,.32-.07,.2-.15,.4-.22,.6-.05,.13-.1,.26-.15,.39,.03-.16,.07-.49,.07-.52,0-.29-.09-.75-.3-1.08,0-.04,0-.08,0-.13-.05-.33-.36-.57-.7-.48-.46,.12-.76,.94-.78,1.37,0,.03,.02,.3,.03,.48-.02-.1-.04-.2-.07-.3-.05-.21-.1-.41-.16-.63-.03-.1-.06-.21-.1-.32-.03-.11-.07-.22-.11-.33-.09-.25-.2-.5-.31-.75,.18-.04,.82-.21,1.07-.4,.25-.2,.52-.51,.52-.85,0-.33-.27-.62-.61-.58-.48,.05-.89,.81-.98,1.23,0,.03-.03,.34-.05,.51-.07-.15-.14-.3-.21-.45-.21-.43-.44-.86-.67-1.29-.07-.13-.14-.26-.21-.39,.06-.01,.83-.19,1.11-.41,.25-.2,.52-.51,.52-.85,0-.33-.27-.62-.61-.58-.48,.05-.89,.81-.98,1.23,0,.03-.05,.48-.05,.59-.15-.29-.3-.58-.43-.87-.18-.4-.34-.81-.47-1.21,.03,0,.83-.19,1.12-.41,.25-.2,.52-.51,.52-.85,0-.33-.27-.62-.61-.58-.48,.05-.89,.81-.98,1.23,0,.03-.05,.51-.05,.6,0-.02-.02-.05-.02-.07-.13-.43-.2-.87-.24-1.28-.03-.24-.04-.47-.05-.69,.15-.02,.84-.11,1.13-.28,.27-.17,.58-.45,.61-.79,.03-.33-.2-.65-.55-.65-.48,0-.98,.71-1.11,1.12,0,.02-.06,.26-.09,.43,0-.1,0-.21,0-.3,0-.36,.02-.7,.05-.99,.01-.17,.03-.32,.05-.46,.14-.1,.7-.49,.87-.77,.17-.27,.3-.67,.18-.99-.12-.31-.48-.48-.78-.32-.43,.22-.54,1.08-.47,1.51,0,.04,.17,.6,.17,.59h0c-.02,.13-.04,.28-.05,.44-.03,.29-.06,.63-.07,.99,0,.36,0,.76,.03,1.18,.04,.42,.1,.86,.22,1.3v.02c-.07-.12-.29-.44-.31-.47-.28-.32-1.02-.79-1.46-.6-.32,.14-.41,.52-.25,.81,.16,.3,.56,.44,.87,.49Z"/><path class="cls-11" d="M146.22,381.91s.15-.56,.16-.6c.06-.43-.08-1.28-.51-1.49-.31-.15-.66,.03-.77,.34-.12,.32,.03,.71,.21,.98,.2,.32,.92,.77,.92,.77Z"/></g><g><path class="cls-11" d="M364.2,376.4c.52,.23,1.81,.2,1.81,.2,.01,0-.28-.84-.3-.89-.28-.59-1.17-1.56-1.9-1.46-.52,.07-.81,.59-.69,1.08,.12,.5,.63,.87,1.08,1.07Z"/><path class="cls-11" d="M364.65,380.11c.54,.08,1.69-.25,1.78-.28,.18,.64,.42,1.28,.69,1.92,.16,.36,.33,.73,.5,1.09-.1-.15-.2-.29-.21-.31-.43-.49-1.54-1.2-2.21-.91-.48,.21-.63,.79-.38,1.23,.25,.45,.84,.68,1.33,.75,.49,.07,1.47-.19,1.73-.27,.07,.14,.14,.28,.2,.41,.33,.66,.66,1.32,.97,1.97,.11,.23,.21,.46,.31,.69-.09-.14-.17-.25-.19-.27-.43-.49-1.54-1.2-2.21-.91-.48,.21-.63,.79-.38,1.23,.25,.45,.84,.68,1.33,.75,.47,.07,1.37-.17,1.68-.25,.09,.24,.19,.48,.27,.72,.05,.16,.11,.32,.15,.48,.05,.16,.09,.33,.14,.49,.07,.31,.15,.63,.22,.94,.05,.21,.09,.42,.13,.62-.11-.23-.32-.68-.34-.71-.35-.55-1.34-1.42-2.05-1.23-.51,.13-.74,.68-.56,1.16,.18,.48,.73,.8,1.2,.94,.51,.16,1.65,.01,1.79,0,.07,.34,.13,.67,.19,.98,.04,.23,.08,.45,.11,.67h.45c-.04-.24-.09-.49-.14-.75-.07-.34-.15-.71-.23-1.09,.09-.03,.57-.23,1-.47,.37,.4,1.33,.88,1.46,.94-.13,.32-.26,.63-.39,.92-.07,.15-.13,.3-.2,.44h.48c.04-.09,.08-.18,.11-.28,.13-.33,.27-.68,.41-1.04,.14,.03,1.26,.26,1.79,.14,.48-.11,1.05-.38,1.26-.85,.21-.46,.02-1.03-.48-1.19-.69-.23-1.75,.55-2.14,1.08-.02,.03-.23,.39-.36,.63,.06-.15,.11-.29,.16-.44,.11-.3,.21-.61,.32-.93,.05-.16,.1-.32,.14-.48,.05-.16,.09-.34,.13-.51,.09-.4,.17-.8,.24-1.21,.26,.1,1.21,.42,1.69,.39,.49-.03,1.1-.21,1.38-.64,.28-.42,.18-1.01-.29-1.25-.65-.33-1.81,.28-2.28,.74-.03,.03-.32,.4-.48,.6,.04-.25,.08-.49,.11-.74,.09-.72,.16-1.46,.23-2.19,.02-.22,.05-.45,.07-.67,.09,.04,1.21,.45,1.75,.41,.49-.03,1.1-.21,1.38-.64,.28-.42,.18-1.01-.29-1.25-.65-.33-1.81,.28-2.28,.74-.03,.03-.46,.56-.56,.7,.05-.49,.11-.98,.18-1.47,.1-.67,.24-1.31,.42-1.93,.04,.02,1.2,.45,1.76,.41,.49-.03,1.1-.21,1.38-.64,.28-.42,.18-1.01-.29-1.25-.65-.33-1.81,.28-2.28,.74-.04,.04-.49,.61-.57,.72,.01-.04,.02-.08,.03-.11,.2-.66,.48-1.27,.76-1.83,.17-.33,.34-.63,.52-.92,.21,.1,1.16,.57,1.67,.59,.49,.02,1.11-.09,1.44-.49,.32-.39,.29-.99-.15-1.28-.61-.4-1.83,.08-2.34,.49-.03,.02-.28,.28-.47,.47,.08-.13,.17-.26,.25-.39,.31-.46,.61-.86,.89-1.22,.16-.2,.31-.38,.45-.54,.26,0,1.29-.04,1.74-.25,.44-.21,.95-.59,1.05-1.1,.1-.49-.2-1.01-.72-1.06-.73-.08-1.59,.92-1.85,1.51-.02,.05-.29,.9-.28,.9h.02c-.14,.16-.28,.32-.44,.51-.28,.35-.6,.75-.92,1.2-.32,.45-.65,.96-.95,1.52-.3,.56-.59,1.17-.81,1.83v.02c0-.21-.01-.81-.02-.86-.08-.65-.63-1.85-1.34-1.98-.52-.1-.96,.31-1,.81-.04,.51,.33,1.03,.69,1.35,.41,.37,1.55,.72,1.64,.75-.2,.63-.36,1.3-.48,1.98-.07,.39-.13,.79-.18,1.18,0-.19,0-.35,0-.37-.08-.65-.63-1.85-1.34-1.98-.52-.1-.96,.31-1,.81-.04,.51,.33,1.03,.69,1.35,.37,.33,1.33,.65,1.59,.73-.02,.15-.04,.31-.06,.46-.09,.73-.17,1.47-.28,2.18-.04,.25-.08,.5-.13,.75,0-.16,0-.3,0-.32-.08-.65-.63-1.85-1.34-1.98-.52-.1-.96,.31-1,.81-.04,.51,.33,1.03,.69,1.35,.35,.31,1.24,.62,1.54,.72-.05,.25-.11,.5-.17,.75-.05,.16-.08,.33-.14,.49-.05,.16-.1,.32-.15,.48-.11,.3-.22,.61-.34,.91-.08,.2-.16,.4-.23,.59,.04-.25,.11-.74,.11-.78,0-.43-.14-1.14-.45-1.63,0-.06,0-.13-.01-.19-.08-.5-.55-.87-1.06-.73-.71,.19-1.15,1.43-1.19,2.08,0,.04,.02,.46,.04,.72-.04-.15-.07-.3-.11-.46-.07-.31-.16-.62-.25-.95-.05-.16-.1-.32-.15-.48-.05-.16-.11-.33-.17-.49-.14-.38-.3-.76-.47-1.14,.27-.07,1.24-.31,1.63-.61,.39-.3,.8-.78,.79-1.3,0-.5-.41-.94-.93-.89-.73,.08-1.36,1.24-1.49,1.87,0,.04-.05,.51-.07,.77-.1-.23-.21-.45-.32-.68-.32-.65-.67-1.31-1.02-1.96-.11-.2-.21-.4-.31-.6,.1-.02,1.25-.29,1.69-.62,.39-.3,.8-.78,.79-1.3,0-.5-.41-.94-.93-.89-.73,.08-1.36,1.24-1.49,1.87,0,.05-.07,.72-.08,.9-.23-.44-.45-.88-.66-1.32-.28-.61-.52-1.23-.71-1.84,.05-.01,1.25-.28,1.7-.63,.39-.3,.8-.78,.79-1.3,0-.5-.41-.94-.93-.89-.73,.08-1.36,1.24-1.49,1.87-.01,.05-.08,.78-.08,.91-.01-.04-.03-.07-.04-.11-.19-.66-.3-1.32-.37-1.94-.04-.36-.06-.71-.07-1.05,.23-.03,1.28-.17,1.72-.43,.42-.25,.88-.69,.93-1.2,.05-.5-.3-.98-.83-.98-.73,0-1.48,1.08-1.69,1.7-.01,.03-.08,.39-.13,.65,0-.15,0-.31,0-.46,0-.55,.04-1.06,.07-1.51,.02-.25,.05-.48,.07-.7,.21-.15,1.06-.74,1.32-1.17,.25-.42,.46-1.02,.27-1.5-.19-.47-.72-.73-1.19-.49-.65,.34-.82,1.64-.71,2.29,0,.06,.25,.91,.27,.9h.01c-.03,.2-.06,.42-.08,.66-.04,.45-.09,.95-.1,1.51-.01,.55-.01,1.16,.04,1.79,.06,.64,.15,1.3,.33,1.98v.02c-.11-.18-.45-.67-.48-.71-.43-.49-1.54-1.2-2.21-.91-.48,.21-.63,.79-.38,1.23,.25,.45,.84,.68,1.33,.75Z"/><path class="cls-11" d="M377.17,376.68s.23-.85,.24-.91c.09-.65-.12-1.95-.77-2.27-.47-.23-1,.05-1.18,.52-.18,.48,.05,1.08,.31,1.49,.31,.48,1.4,1.16,1.4,1.16Z"/></g><g class="cls-9"><path class="cls-4" d="M349.06,120.83s-1.82-4.84-6.05-5.75-5.9,1.66-6.81,3.78c-.91,2.12-3.63,.45-5.9,.15-2.27-.3-3.48,1.97-3.93,3.63-.45,1.66-3.33-.76-5.9,.76-2.57,1.51-3.03,3.48-3.63,3.93-.61,.45-2.27-.3-3.18,.91l-.91,1.21h47.36s1.51-3.48-1.36-6.05c-2.87-2.57-7.87,1.36-9.68-2.57Z"/><path class="cls-4" d="M129.83,123.13s-2.45-6.52-8.15-7.75c-5.71-1.22-7.95,2.24-9.17,5.1-1.22,2.85-4.89,.61-7.95,.2-3.06-.41-4.69,2.65-5.3,4.89-.61,2.24-4.48-1.02-7.95,1.02-3.47,2.04-4.08,4.69-4.89,5.3s-3.06-.41-4.28,1.22l-1.22,1.63h63.81s2.04-4.69-1.83-8.15c-3.87-3.47-10.6,1.83-13.05-3.47Z"/><path class="cls-4" d="M402.09,91.94s-3.57-9.51-11.89-11.3c-8.32-1.78-11.6,3.27-13.38,7.43-1.78,4.16-7.14,.89-11.6,.3-4.46-.59-6.84,3.87-7.73,7.14-.89,3.27-6.54-1.49-11.6,1.49-5.05,2.97-5.95,6.84-7.14,7.73-1.19,.89-4.46-.59-6.24,1.78l-1.78,2.38h93.06s2.97-6.84-2.68-11.89c-5.65-5.05-15.46,2.68-19.03-5.05Z"/></g><g class="cls-9"><polyline class="cls-7" points="418.78 210.89 418.78 230.22 429.4 230.22"/><polyline class="cls-7" points="349.09 148.32 361.63 148.32 361.63 177.36 373.5 177.36 373.5 136.76 408.79 136.76 408.79 143.95 404.11 143.95 404.11 148.63 408.79 148.63 408.79 161.12 418.78 161.12 418.78 205.55"/><polyline class="cls-7" points="206.15 165.97 214.4 165.97 214.4 120.27 210.25 120.27 210.25 113.39 222.29 113.39 222.29 120.22 219.09 120.22 219.09 140.02 228.06 140.02 228.06 112.05 302.58 112.05 302.58 138.96 316.03 138.96 316.03 179.53 327.9 179.53 327.9 148.32 343.74 148.32"/><polyline class="cls-7" points="130.45 151.72 147.09 151.72 147.09 166.95 154.46 166.95 154.46 125.67 183.45 125.67 183.45 139.92 189.84 139.92 189.84 150.73 196.71 150.73 196.71 165.97 202.14 165.97"/><polyline class="cls-7" points="88.61 232.3 99.92 232.3 99.92 176.28 116.62 176.28 116.62 151.72 125.11 151.72"/><polyline class="cls-7" points="240.71 161.46 240.71 124.76 296.75 124.76 296.75 178.61"/><line class="cls-7" x1="240.71" y1="181.67" x2="240.71" y2="165.47"/><rect class="cls-7" x="261.73" y="132.64" width="34.59" height="3.5"/><rect class="cls-7" x="261.73" y="141.83" width="34.59" height="3.5"/><rect class="cls-7" x="261.73" y="151.03" width="34.59" height="3.5"/><rect class="cls-7" x="261.73" y="160.22" width="34.59" height="3.5"/><rect class="cls-7" x="261.73" y="169.41" width="34.59" height="3.5"/><polyline class="cls-7" points="163.41 175.98 122.95 175.98 122.95 170.29 193 170.29 193 175.98 169.19 175.98"/><line class="cls-7" x1="126.12" y1="175.99" x2="126.12" y2="215.01"/><line class="cls-7" x1="190.57" y1="176.28" x2="190.57" y2="185.67"/><polyline class="cls-7" points="420.78 242.95 415.44 242.95 415.44 267.44 408.31 267.44 408.31 263.43 400.74 263.43 400.74 200.2 358.44 200.2 358.44 231.37 352.21 231.37"/><line class="cls-7" x1="117.54" y1="238.5" x2="80.14" y2="238.5"/><line class="cls-7" x1="128.23" y1="238.5" x2="122.88" y2="238.5"/></g><g><rect class="cls-3" x="165.65" y="187.25" width="173.45" height="24.93"/><rect class="cls-3" x="259.49" y="187.25" width="79.61" height="24.93"/><rect class="cls-3" x="158.15" y="209.71" width="188.44" height="5.79"/><rect class="cls-3" x="262.08" y="213.51" width="83.52" height="178.48"/><rect class="cls-6" x="260.8" y="222.29" width="84.8" height="4.46"/><rect class="cls-6" x="260.8" y="363.72" width="84.8" height="4.46"/><rect class="cls-5" x="262.08" y="213.51" width="87.51" height="10.22"/><rect class="cls-8" x="309.3" y="218.62" width="40.29" height="5.11"/><rect class="cls-5" x="262.08" y="355.29" width="87.51" height="10.22"/><rect class="cls-5" x="268.12" y="355.29" width="81.47" height="10.22"/><rect class="cls-6" x="157.13" y="225.49" width="34.02" height="139.88"/><polygon class="cls-5" points="154.64 213.51 154.64 229.3 194.62 229.3 194.62 243.51 154.64 243.51 154.64 258.46 194.62 258.46 194.62 272.66 154.64 272.66 154.64 287.62 194.62 287.62 194.62 301.82 154.64 301.82 154.64 316.77 194.62 316.77 194.62 330.98 154.64 330.98 154.64 345.93 194.62 345.93 194.62 360.13 154.64 360.13 154.64 391.99 221.23 391.99 221.23 213.51 154.64 213.51"/><rect class="cls-3" x="195.94" y="213.51" width="66.6" height="178.48"/><rect class="cls-3" x="188.31" y="213.51" width="66.6" height="178.48"/><rect class="cls-5" x="204.22" y="221.55" width="35.45" height="35.45"/><g><g><rect class="cls-6" x="265.11" y="229.61" width="11.57" height="12.52"/><rect class="cls-6" x="281.38" y="229.61" width="11.57" height="12.52"/><rect class="cls-6" x="297.66" y="229.61" width="11.57" height="12.52"/><rect class="cls-6" x="313.94" y="229.61" width="11.57" height="12.52"/><rect class="cls-6" x="330.21" y="229.61" width="11.57" height="12.52"/></g><g><rect class="cls-6" x="265.11" y="251.41" width="11.57" height="12.52"/><rect class="cls-6" x="281.38" y="251.41" width="11.57" height="12.52"/><rect class="cls-6" x="297.66" y="251.41" width="11.57" height="12.52"/><rect class="cls-6" x="313.94" y="251.41" width="11.57" height="12.52"/><rect class="cls-6" x="330.21" y="251.41" width="11.57" height="12.52"/></g><g><rect class="cls-6" x="265.11" y="273.22" width="11.57" height="12.52"/><rect class="cls-6" x="281.38" y="273.22" width="11.57" height="12.52"/><rect class="cls-6" x="297.66" y="273.22" width="11.57" height="12.52"/><rect class="cls-6" x="313.94" y="273.22" width="11.57" height="12.52"/><rect class="cls-6" x="330.21" y="273.22" width="11.57" height="12.52"/></g><g><rect class="cls-6" x="265.11" y="295.03" width="11.57" height="12.52"/><rect class="cls-6" x="281.38" y="295.03" width="11.57" height="12.52"/><rect class="cls-6" x="297.66" y="295.03" width="11.57" height="12.52"/><rect class="cls-6" x="313.94" y="295.03" width="11.57" height="12.52"/><rect class="cls-6" x="330.21" y="295.03" width="11.57" height="12.52"/></g><g><rect class="cls-6" x="265.11" y="316.84" width="11.57" height="12.52"/><rect class="cls-6" x="281.38" y="316.84" width="11.57" height="12.52"/><rect class="cls-6" x="297.66" y="316.84" width="11.57" height="12.52"/><rect class="cls-6" x="313.94" y="316.84" width="11.57" height="12.52"/><rect class="cls-6" x="330.21" y="316.84" width="11.57" height="12.52"/></g><g><rect class="cls-6" x="265.11" y="338.65" width="11.57" height="12.52"/><rect class="cls-6" x="281.38" y="338.65" width="11.57" height="12.52"/><rect class="cls-6" x="297.66" y="338.65" width="11.57" height="12.52"/><rect class="cls-6" x="313.94" y="338.65" width="11.57" height="12.52"/><rect class="cls-6" x="330.21" y="338.65" width="11.57" height="12.52"/></g></g><g><rect class="cls-6" x="269.14" y="371.75" width="15.27" height="20.25"/><rect class="cls-6" x="324.4" y="371.75" width="15.27" height="20.25"/><rect class="cls-6" x="289.9" y="371.75" width="29.04" height="20.25"/></g><g><g><rect class="cls-3" x="205.06" y="263.15" width="34.36" height="113.1"/><line class="cls-7" x1="222.04" y1="263.46" x2="222.04" y2="376.22"/><g><line class="cls-7" x1="205.22" y1="275.78" x2="239.07" y2="275.78"/><line class="cls-7" x1="205.22" y1="288.72" x2="239.07" y2="288.72"/><line class="cls-7" x1="205.22" y1="301.67" x2="239.07" y2="301.67"/><line class="cls-7" x1="205.22" y1="314.61" x2="239.07" y2="314.61"/><line class="cls-7" x1="205.22" y1="327.56" x2="239.07" y2="327.56"/><line class="cls-7" x1="205.22" y1="340.5" x2="239.07" y2="340.5"/><line class="cls-7" x1="205.22" y1="353.44" x2="239.07" y2="353.44"/><line class="cls-7" x1="205.22" y1="366.39" x2="239.07" y2="366.39"/></g></g><g><line class="cls-7" x1="218.46" y1="265.54" x2="211.4" y2="272.6"/><line class="cls-7" x1="211.51" y1="269.02" x2="209.05" y2="271.48"/></g><g><line class="cls-7" x1="218.46" y1="278.84" x2="211.4" y2="285.9"/><line class="cls-7" x1="211.51" y1="282.32" x2="209.05" y2="284.77"/></g><g><line class="cls-7" x1="218.46" y1="292.14" x2="211.4" y2="299.19"/><line class="cls-7" x1="211.51" y1="295.61" x2="209.05" y2="298.07"/></g><g><line class="cls-7" x1="218.46" y1="304.61" x2="211.4" y2="311.67"/><line class="cls-7" x1="211.51" y1="308.09" x2="209.05" y2="310.55"/></g><g><line class="cls-7" x1="218.46" y1="317.71" x2="211.4" y2="324.76"/><line class="cls-7" x1="211.51" y1="321.18" x2="209.05" y2="323.64"/></g><g><line class="cls-7" x1="218.46" y1="329.98" x2="211.4" y2="337.04"/><line class="cls-7" x1="211.51" y1="333.46" x2="209.05" y2="335.91"/></g><g><line class="cls-7" x1="218.46" y1="343.28" x2="211.4" y2="350.33"/><line class="cls-7" x1="211.51" y1="346.75" x2="209.05" y2="349.21"/></g><g><line class="cls-7" x1="218.46" y1="356.78" x2="211.4" y2="363.83"/><line class="cls-7" x1="211.51" y1="360.25" x2="209.05" y2="362.71"/></g><g><line class="cls-7" x1="218.46" y1="367.41" x2="211.4" y2="374.47"/><line class="cls-7" x1="211.51" y1="370.89" x2="209.05" y2="373.35"/></g><g><line class="cls-7" x1="234.75" y1="265.54" x2="227.7" y2="272.6"/><line class="cls-7" x1="227.8" y1="269.02" x2="225.34" y2="271.48"/></g><g><line class="cls-7" x1="234.75" y1="278.84" x2="227.7" y2="285.9"/><line class="cls-7" x1="227.8" y1="282.32" x2="225.34" y2="284.77"/></g><g><line class="cls-7" x1="234.75" y1="292.14" x2="227.7" y2="299.19"/><line class="cls-7" x1="227.8" y1="295.61" x2="225.34" y2="298.07"/></g><g><line class="cls-7" x1="234.75" y1="304.61" x2="227.7" y2="311.67"/><line class="cls-7" x1="227.8" y1="308.09" x2="225.34" y2="310.55"/></g><g><line class="cls-7" x1="234.75" y1="317.71" x2="227.7" y2="324.76"/><line class="cls-7" x1="227.8" y1="321.18" x2="225.34" y2="323.64"/></g><g><line class="cls-7" x1="234.75" y1="329.98" x2="227.7" y2="337.04"/><line class="cls-7" x1="227.8" y1="333.46" x2="225.34" y2="335.91"/></g><g><line class="cls-7" x1="234.75" y1="343.28" x2="227.7" y2="350.33"/><line class="cls-7" x1="227.8" y1="346.75" x2="225.34" y2="349.21"/></g><g><line class="cls-7" x1="234.75" y1="356.78" x2="227.7" y2="363.83"/><line class="cls-7" x1="227.8" y1="360.25" x2="225.34" y2="362.71"/></g><g><line class="cls-7" x1="234.75" y1="367.41" x2="227.7" y2="374.47"/><line class="cls-7" x1="227.8" y1="370.89" x2="225.34" y2="373.35"/></g></g></g><g><path class="cls-10" d="M146.06,344.46c0,11.33-6.7,20.51-14.96,20.51s-14.96-9.18-14.96-20.51,6.7-50.25,14.96-50.25,14.96,38.93,14.96,50.25Z"/><polygon points="139.49 350.39 134.96 352.07 135.87 349.34 133.7 352.53 131.54 353.33 131.38 344.37 139.25 333.91 135.04 338.13 135.75 335.2 133.73 339.44 131.34 341.83 131.1 327.84 130.24 348.25 122.78 340.34 126.88 345.91 123.01 345.48 127.79 347.15 130.15 350.36 129.74 360.2 126.99 358.33 129.65 362.24 128.39 392.31 132.21 392.31 131.56 354.76 139.49 350.39"/><g><path class="cls-1" d="M139.33,327.88s.14,1.37-.61,2.38c-.75,1.01-2.11,1.27-2.11,1.27,0,0-.14-1.37,.61-2.38,.75-1.01,2.11-1.27,2.11-1.27Z"/><path class="cls-1" d="M143.84,334.22s.14,1.37-.61,2.38c-.75,1.01-2.11,1.27-2.11,1.27,0,0-.14-1.37,.61-2.38,.75-1.01,2.11-1.27,2.11-1.27Z"/><path class="cls-1" d="M143.84,346.56s-.33,1.34-1.38,2.04c-1.05,.7-2.41,.49-2.41,.49,0,0,.33-1.34,1.38-2.04s2.41-.49,2.41-.49Z"/><path class="cls-1" d="M119.07,346.56s.33,1.34,1.38,2.04c1.05,.7,2.41,.49,2.41,.49,0,0-.33-1.34-1.38-2.04s-2.41-.49-2.41-.49Z"/><path class="cls-1" d="M138.63,341.43s.14,1.37-.61,2.38c-.75,1.01-2.11,1.27-2.11,1.27,0,0-.14-1.37,.61-2.38,.75-1.01,2.11-1.27,2.11-1.27Z"/><path class="cls-1" d="M137.46,320.99s.14,1.37-.61,2.38c-.75,1.01-2.11,1.27-2.11,1.27,0,0-.14-1.37,.61-2.38,.75-1.01,2.11-1.27,2.11-1.27Z"/><path class="cls-1" d="M134.77,326.24s.14,1.37-.61,2.38c-.75,1.01-2.11,1.27-2.11,1.27,0,0-.14-1.37,.61-2.38,.75-1.01,2.11-1.27,2.11-1.27Z"/><path class="cls-1" d="M141.15,322.42s.14,1.37-.61,2.38-2.11,1.27-2.11,1.27c0,0-.14-1.37,.61-2.38,.75-1.01,2.11-1.27,2.11-1.27Z"/><path class="cls-1" d="M120.42,322.42s-.14,1.37,.61,2.38c.75,1.01,2.11,1.27,2.11,1.27,0,0,.14-1.37-.61-2.38-.75-1.01-2.11-1.27-2.11-1.27Z"/><path class="cls-1" d="M138.04,314.56s.14,1.37-.61,2.38c-.75,1.01-2.11,1.27-2.11,1.27,0,0-.14-1.37,.61-2.38,.75-1.01,2.11-1.27,2.11-1.27Z"/><path class="cls-1" d="M136.72,307.73s.48,1.3,0,2.46c-.47,1.17-1.72,1.76-1.72,1.76,0,0-.48-1.3,0-2.46,.47-1.17,1.72-1.76,1.72-1.76Z"/><path class="cls-1" d="M127.26,305.95s1.22,.64,1.65,1.82c.43,1.18-.1,2.46-.1,2.46,0,0-1.22-.64-1.65-1.82-.43-1.18,.1-2.46,.1-2.46Z"/><path class="cls-1" d="M131.67,314.11s.87,1.07,.8,2.33c-.07,1.26-1.06,2.22-1.06,2.22,0,0-.87-1.07-.8-2.33,.07-1.26,1.06-2.22,1.06-2.22Z"/><path class="cls-1" d="M131.44,301.96s.87,1.07,.8,2.33c-.07,1.26-1.06,2.22-1.06,2.22,0,0-.87-1.07-.8-2.33,.07-1.26,1.06-2.22,1.06-2.22Z"/><path class="cls-1" d="M121.54,327.88s-.14,1.37,.61,2.38c.75,1.01,2.11,1.27,2.11,1.27,0,0,.14-1.37-.61-2.38-.75-1.01-2.11-1.27-2.11-1.27Z"/><path class="cls-1" d="M118.97,335.36s-.14,1.37,.61,2.38c.75,1.01,2.11,1.27,2.11,1.27,0,0,.14-1.37-.61-2.38-.75-1.01-2.11-1.27-2.11-1.27Z"/><path class="cls-1" d="M125.79,338.07s-.14,1.37,.61,2.38c.75,1.01,2.11,1.27,2.11,1.27,0,0,.14-1.37-.61-2.38-.75-1.01-2.11-1.27-2.11-1.27Z"/><path class="cls-1" d="M127.65,327.71s-.53,1.28-.1,2.46,1.66,1.82,1.66,1.82c0,0,.53-1.28,.1-2.46s-1.66-1.82-1.66-1.82Z"/><path class="cls-1" d="M122.82,355.28s1.38,.03,2.33-.81c.94-.83,1.09-2.21,1.09-2.21,0,0-1.38-.03-2.33,.81-.94,.83-1.09,2.21-1.09,2.21Z"/><path class="cls-1" d="M136.08,353.77s.38,1.33,1.44,1.99c1.07,.66,2.43,.41,2.43,.41,0,0-.38-1.33-1.44-1.99-1.07-.66-2.43-.41-2.43-.41Z"/><path class="cls-1" d="M124.36,320.99s-.14,1.37,.61,2.38c.75,1.01,2.11,1.27,2.11,1.27,0,0,.14-1.37-.61-2.38-.75-1.01-2.11-1.27-2.11-1.27Z"/><path class="cls-1" d="M124.34,314.91s-.14,1.37,.61,2.38c.75,1.01,2.11,1.27,2.11,1.27,0,0,.14-1.37-.61-2.38-.75-1.01-2.11-1.27-2.11-1.27Z"/></g></g><g><path class="cls-10" d="M388.55,344.46c0,11.33-6.7,20.51-14.96,20.51s-14.96-9.18-14.96-20.51,6.7-50.25,14.96-50.25,14.96,38.93,14.96,50.25Z"/><polygon points="381.98 350.39 377.45 352.07 378.36 349.34 376.19 352.53 374.03 353.33 373.87 344.37 381.75 333.91 377.53 338.13 378.24 335.2 376.22 339.44 373.83 341.83 373.59 327.84 372.73 348.25 365.27 340.34 369.37 345.91 365.51 345.48 370.28 347.15 372.64 350.36 372.23 360.2 369.48 358.33 372.14 362.24 370.88 392.31 374.7 392.31 374.05 354.76 381.98 350.39"/><g><path class="cls-1" d="M381.82,327.88s.14,1.37-.61,2.38c-.75,1.01-2.11,1.27-2.11,1.27,0,0-.14-1.37,.61-2.38,.75-1.01,2.11-1.27,2.11-1.27Z"/><path class="cls-1" d="M386.33,334.22s.14,1.37-.61,2.38c-.75,1.01-2.11,1.27-2.11,1.27,0,0-.14-1.37,.61-2.38,.75-1.01,2.11-1.27,2.11-1.27Z"/><path class="cls-1" d="M386.33,346.56s-.33,1.34-1.38,2.04c-1.05,.7-2.41,.49-2.41,.49,0,0,.33-1.34,1.38-2.04s2.41-.49,2.41-.49Z"/><path class="cls-1" d="M361.56,346.56s.33,1.34,1.38,2.04c1.05,.7,2.41,.49,2.41,.49,0,0-.33-1.34-1.38-2.04-1.05-.7-2.41-.49-2.41-.49Z"/><path class="cls-1" d="M381.12,341.43s.14,1.37-.61,2.38c-.75,1.01-2.11,1.27-2.11,1.27,0,0-.14-1.37,.61-2.38,.75-1.01,2.11-1.27,2.11-1.27Z"/><path class="cls-1" d="M379.95,320.99s.14,1.37-.61,2.38c-.75,1.01-2.11,1.27-2.11,1.27,0,0-.14-1.37,.61-2.38,.75-1.01,2.11-1.27,2.11-1.27Z"/><path class="cls-1" d="M377.26,326.24s.14,1.37-.61,2.38-2.11,1.27-2.11,1.27c0,0-.14-1.37,.61-2.38,.75-1.01,2.11-1.27,2.11-1.27Z"/><path class="cls-1" d="M383.64,322.42s.14,1.37-.61,2.38c-.75,1.01-2.11,1.27-2.11,1.27,0,0-.14-1.37,.61-2.38,.75-1.01,2.11-1.27,2.11-1.27Z"/><path class="cls-1" d="M362.91,322.42s-.14,1.37,.61,2.38c.75,1.01,2.11,1.27,2.11,1.27,0,0,.14-1.37-.61-2.38-.75-1.01-2.11-1.27-2.11-1.27Z"/><path class="cls-1" d="M380.54,314.56s.14,1.37-.61,2.38c-.75,1.01-2.11,1.27-2.11,1.27,0,0-.14-1.37,.61-2.38,.75-1.01,2.11-1.27,2.11-1.27Z"/><path class="cls-1" d="M379.22,307.73s.48,1.3,0,2.46-1.72,1.76-1.72,1.76c0,0-.48-1.3,0-2.46,.47-1.17,1.72-1.76,1.72-1.76Z"/><path class="cls-1" d="M369.75,305.95s1.22,.64,1.65,1.82c.43,1.18-.1,2.46-.1,2.46,0,0-1.22-.64-1.65-1.82-.43-1.18,.1-2.46,.1-2.46Z"/><path class="cls-1" d="M374.17,314.11s.87,1.07,.8,2.33c-.07,1.26-1.06,2.22-1.06,2.22,0,0-.87-1.07-.8-2.33,.07-1.26,1.06-2.22,1.06-2.22Z"/><path class="cls-1" d="M373.93,301.96s.87,1.07,.8,2.33c-.07,1.26-1.06,2.22-1.06,2.22,0,0-.87-1.07-.8-2.33,.07-1.26,1.06-2.22,1.06-2.22Z"/><path class="cls-1" d="M364.03,327.88s-.14,1.37,.61,2.38c.75,1.01,2.11,1.27,2.11,1.27,0,0,.14-1.37-.61-2.38-.75-1.01-2.11-1.27-2.11-1.27Z"/><path class="cls-1" d="M361.46,335.36s-.14,1.37,.61,2.38,2.11,1.27,2.11,1.27c0,0,.14-1.37-.61-2.38-.75-1.01-2.11-1.27-2.11-1.27Z"/><path class="cls-1" d="M368.28,338.07s-.14,1.37,.61,2.38c.75,1.01,2.11,1.27,2.11,1.27,0,0,.14-1.37-.61-2.38-.75-1.01-2.11-1.27-2.11-1.27Z"/><path class="cls-1" d="M370.15,327.71s-.53,1.28-.1,2.46c.43,1.18,1.66,1.82,1.66,1.82,0,0,.53-1.28,.1-2.46s-1.66-1.82-1.66-1.82Z"/><path class="cls-1" d="M365.31,355.28s1.38,.03,2.33-.81c.94-.83,1.09-2.21,1.09-2.21,0,0-1.38-.03-2.33,.81-.94,.83-1.09,2.21-1.09,2.21Z"/><path class="cls-1" d="M378.57,353.77s.38,1.33,1.44,1.99c1.07,.66,2.43,.41,2.43,.41,0,0-.38-1.33-1.44-1.99-1.07-.66-2.43-.41-2.43-.41Z"/><path class="cls-1" d="M366.86,320.99s-.14,1.37,.61,2.38c.75,1.01,2.11,1.27,2.11,1.27,0,0,.14-1.37-.61-2.38-.75-1.01-2.11-1.27-2.11-1.27Z"/><path class="cls-1" d="M366.83,314.91s-.14,1.37,.61,2.38c.75,1.01,2.11,1.27,2.11,1.27,0,0,.14-1.37-.61-2.38s-2.11-1.27-2.11-1.27Z"/></g></g><g><path class="cls-10" d="M409.37,355.49c0,8.72-5.16,15.78-11.52,15.78s-11.52-7.07-11.52-15.78,5.16-38.67,11.52-38.67,11.52,29.96,11.52,38.67Z"/><polygon points="404.31 360.05 400.82 361.34 401.52 359.24 399.86 361.7 398.19 362.31 398.07 355.42 404.13 347.37 400.88 350.62 401.43 348.36 399.88 351.62 398.04 353.46 397.85 342.69 397.19 358.4 391.45 352.32 394.61 356.6 391.63 356.27 395.31 357.55 397.13 360.03 396.81 367.6 394.69 366.16 396.74 369.17 395.77 392.31 398.71 392.31 398.21 363.41 404.31 360.05"/><g><path class="cls-1" d="M404.19,342.73s.11,1.06-.47,1.83c-.58,.78-1.62,.98-1.62,.98,0,0-.11-1.06,.47-1.83,.58-.78,1.62-.98,1.62-.98Z"/><path class="cls-1" d="M407.66,347.6s.11,1.06-.47,1.83c-.58,.78-1.62,.98-1.62,.98,0,0-.11-1.06,.47-1.83,.58-.78,1.62-.98,1.62-.98Z"/><path class="cls-1" d="M407.66,357.1s-.26,1.03-1.06,1.57c-.81,.54-1.86,.37-1.86,.37,0,0,.26-1.03,1.06-1.57,.81-.54,1.86-.37,1.86-.37Z"/><path class="cls-1" d="M388.6,357.1s.26,1.03,1.06,1.57c.81,.54,1.86,.37,1.86,.37,0,0-.26-1.03-1.06-1.57-.81-.54-1.86-.37-1.86-.37Z"/><path class="cls-1" d="M403.65,353.16s.11,1.06-.47,1.83c-.58,.78-1.62,.98-1.62,.98,0,0-.11-1.06,.47-1.83,.58-.78,1.62-.98,1.62-.98Z"/><path class="cls-1" d="M402.75,337.42s.11,1.06-.47,1.83c-.58,.78-1.62,.98-1.62,.98,0,0-.11-1.06,.47-1.83,.58-.78,1.62-.98,1.62-.98Z"/><path class="cls-1" d="M400.68,341.47s.11,1.06-.47,1.83c-.58,.78-1.62,.98-1.62,.98,0,0-.11-1.06,.47-1.83,.58-.78,1.62-.98,1.62-.98Z"/><path class="cls-1" d="M405.59,338.52s.11,1.06-.47,1.83c-.58,.78-1.62,.98-1.62,.98,0,0-.11-1.06,.47-1.83,.58-.78,1.62-.98,1.62-.98Z"/><path class="cls-1" d="M389.64,338.52s-.11,1.06,.47,1.83c.58,.78,1.62,.98,1.62,.98,0,0,.11-1.06-.47-1.83-.58-.78-1.62-.98-1.62-.98Z"/><path class="cls-1" d="M403.2,332.48s.11,1.06-.47,1.83c-.58,.78-1.62,.98-1.62,.98,0,0-.11-1.06,.47-1.83,.58-.78,1.62-.98,1.62-.98Z"/><path class="cls-1" d="M402.18,327.22s.37,1,0,1.89c-.36,.9-1.32,1.35-1.32,1.35,0,0-.37-1,0-1.89,.36-.9,1.32-1.35,1.32-1.35Z"/><path class="cls-1" d="M394.9,325.85s.94,.49,1.27,1.4-.08,1.89-.08,1.89c0,0-.94-.49-1.27-1.4s.08-1.89,.08-1.89Z"/><path class="cls-1" d="M398.3,332.13s.67,.82,.62,1.79-.82,1.71-.82,1.71c0,0-.67-.82-.62-1.79,.06-.97,.82-1.71,.82-1.71Z"/><path class="cls-1" d="M398.12,322.78s.67,.82,.62,1.79-.82,1.71-.82,1.71c0,0-.67-.82-.62-1.79s.82-1.71,.82-1.71Z"/><path class="cls-1" d="M390.5,342.73s-.11,1.06,.47,1.83c.58,.78,1.62,.98,1.62,.98,0,0,.11-1.06-.47-1.83-.58-.78-1.62-.98-1.62-.98Z"/><path class="cls-1" d="M388.52,348.48s-.11,1.06,.47,1.83c.58,.78,1.62,.98,1.62,.98,0,0,.11-1.06-.47-1.83-.58-.78-1.62-.98-1.62-.98Z"/><path class="cls-1" d="M393.77,350.57s-.11,1.06,.47,1.83c.58,.78,1.62,.98,1.62,.98,0,0,.11-1.06-.47-1.83-.58-.78-1.62-.98-1.62-.98Z"/><path class="cls-1" d="M395.2,342.6s-.41,.98-.07,1.89,1.27,1.4,1.27,1.4c0,0,.4-.98,.07-1.89s-1.27-1.4-1.27-1.4Z"/><path class="cls-1" d="M391.49,363.82s1.06,.02,1.79-.62,.84-1.7,.84-1.7c0,0-1.06-.02-1.79,.62-.73,.64-.84,1.7-.84,1.7Z"/><path class="cls-1" d="M401.69,362.65s.29,1.02,1.11,1.53,1.87,.32,1.87,.32c0,0-.29-1.02-1.11-1.53-.82-.51-1.87-.32-1.87-.32Z"/><path class="cls-1" d="M392.67,337.42s-.11,1.06,.47,1.83c.58,.78,1.62,.98,1.62,.98,0,0,.11-1.06-.47-1.83-.58-.78-1.62-.98-1.62-.98Z"/><path class="cls-1" d="M392.65,332.75s-.11,1.06,.47,1.83c.58,.78,1.62,.98,1.62,.98,0,0,.11-1.06-.47-1.83-.58-.78-1.62-.98-1.62-.98Z"/></g></g><g><path class="cls-10" d="M249.16,355.49c0,8.72-5.16,15.78-11.52,15.78s-11.52-7.07-11.52-15.78,5.16-38.67,11.52-38.67,11.52,29.96,11.52,38.67Z"/><polygon points="244.11 360.05 240.62 361.34 241.32 359.24 239.65 361.7 237.99 362.31 237.87 355.42 243.93 347.37 240.68 350.62 241.23 348.36 239.67 351.62 237.83 353.46 237.65 342.69 236.99 358.4 231.25 352.32 234.4 356.6 231.43 356.27 235.1 357.55 236.92 360.03 236.6 367.6 234.48 366.16 236.54 369.17 235.56 392.31 238.5 392.31 238 363.41 244.11 360.05"/><g><path class="cls-1" d="M243.98,342.73s.11,1.06-.47,1.83c-.58,.78-1.62,.98-1.62,.98,0,0-.11-1.06,.47-1.83,.58-.78,1.62-.98,1.62-.98Z"/><path class="cls-1" d="M247.45,347.6s.11,1.06-.47,1.83c-.58,.78-1.62,.98-1.62,.98,0,0-.11-1.06,.47-1.83,.58-.78,1.62-.98,1.62-.98Z"/><path class="cls-1" d="M247.45,357.1s-.26,1.03-1.06,1.57c-.81,.54-1.86,.37-1.86,.37,0,0,.26-1.03,1.06-1.57,.81-.54,1.86-.37,1.86-.37Z"/><path class="cls-1" d="M228.39,357.1s.26,1.03,1.06,1.57c.81,.54,1.86,.37,1.86,.37,0,0-.26-1.03-1.06-1.57-.81-.54-1.86-.37-1.86-.37Z"/><path class="cls-1" d="M243.44,353.16s.11,1.06-.47,1.83c-.58,.78-1.62,.98-1.62,.98,0,0-.11-1.06,.47-1.83,.58-.78,1.62-.98,1.62-.98Z"/><path class="cls-1" d="M242.54,337.42s.11,1.06-.47,1.83c-.58,.78-1.62,.98-1.62,.98,0,0-.11-1.06,.47-1.83,.58-.78,1.62-.98,1.62-.98Z"/><path class="cls-1" d="M240.48,341.47s.11,1.06-.47,1.83c-.58,.78-1.62,.98-1.62,.98,0,0-.11-1.06,.47-1.83,.58-.78,1.62-.98,1.62-.98Z"/><path class="cls-1" d="M245.39,338.52s.11,1.06-.47,1.83c-.58,.78-1.62,.98-1.62,.98,0,0-.11-1.06,.47-1.83,.58-.78,1.62-.98,1.62-.98Z"/><path class="cls-1" d="M229.43,338.52s-.11,1.06,.47,1.83c.58,.78,1.62,.98,1.62,.98,0,0,.11-1.06-.47-1.83-.58-.78-1.62-.98-1.62-.98Z"/><path class="cls-1" d="M242.99,332.48s.11,1.06-.47,1.83c-.58,.78-1.62,.98-1.62,.98,0,0-.11-1.06,.47-1.83,.58-.78,1.62-.98,1.62-.98Z"/><path class="cls-1" d="M241.98,327.22s.37,1,0,1.89c-.36,.9-1.32,1.35-1.32,1.35,0,0-.37-1,0-1.89,.36-.9,1.32-1.35,1.32-1.35Z"/><path class="cls-1" d="M234.69,325.85s.94,.49,1.27,1.4c.33,.91-.08,1.89-.08,1.89,0,0-.94-.49-1.27-1.4s.08-1.89,.08-1.89Z"/><path class="cls-1" d="M238.09,332.13s.67,.82,.62,1.79c-.06,.97-.82,1.71-.82,1.71,0,0-.67-.82-.62-1.79s.82-1.71,.82-1.71Z"/><path class="cls-1" d="M237.91,322.78s.67,.82,.62,1.79c-.06,.97-.82,1.71-.82,1.71,0,0-.67-.82-.62-1.79s.82-1.71,.82-1.71Z"/><path class="cls-1" d="M230.29,342.73s-.11,1.06,.47,1.83c.58,.78,1.62,.98,1.62,.98,0,0,.11-1.06-.47-1.83-.58-.78-1.62-.98-1.62-.98Z"/><path class="cls-1" d="M228.31,348.48s-.11,1.06,.47,1.83c.58,.78,1.62,.98,1.62,.98,0,0,.11-1.06-.47-1.83-.58-.78-1.62-.98-1.62-.98Z"/><path class="cls-1" d="M233.56,350.57s-.11,1.06,.47,1.83c.58,.78,1.62,.98,1.62,.98,0,0,.11-1.06-.47-1.83-.58-.78-1.62-.98-1.62-.98Z"/><path class="cls-1" d="M235,342.6s-.41,.98-.07,1.89c.33,.91,1.27,1.4,1.27,1.4,0,0,.41-.98,.07-1.89s-1.27-1.4-1.27-1.4Z"/><path class="cls-1" d="M231.28,363.82s1.06,.02,1.79-.62c.73-.64,.84-1.7,.84-1.7,0,0-1.06-.02-1.79,.62-.73,.64-.84,1.7-.84,1.7Z"/><path class="cls-1" d="M241.48,362.65s.29,1.02,1.11,1.53c.82,.51,1.87,.32,1.87,.32,0,0-.29-1.02-1.11-1.53-.82-.51-1.87-.32-1.87-.32Z"/><path class="cls-1" d="M232.47,337.42s-.11,1.06,.47,1.83c.58,.78,1.62,.98,1.62,.98,0,0,.11-1.06-.47-1.83-.58-.78-1.62-.98-1.62-.98Z"/><path class="cls-1" d="M232.45,332.75s-.11,1.06,.47,1.83c.58,.78,1.62,.98,1.62,.98,0,0,.11-1.06-.47-1.83-.58-.78-1.62-.98-1.62-.98Z"/></g></g></svg>