<svg width="28" height="27" viewBox="0 0 28 27" fill="none" xmlns="http://www.w3.org/2000/svg">
<g clip-path="url(#clip0_569_46)">
<path d="M20.3092 17.6263C23.6768 15.87 26.2297 14.5318 26.4498 14.4277C27.1537 14.0722 27.8806 13.1311 26.4498 12.4002C25.9878 12.1703 23.5005 10.8737 20.3092 9.20154L15.8853 13.4452L20.3092 17.6262V17.6263Z" fill="#FFD900"/>
<path d="M15.8852 13.4452L1.79883 26.9297C2.12947 26.9713 2.50275 26.888 2.94284 26.6582C3.86681 26.1779 13.6617 21.0972 20.3092 17.6273L15.8852 13.4452Z" fill="#F43249"/>
<path d="M15.8852 13.4453L20.3091 9.22258C20.3091 9.22258 3.93354 0.734233 2.94276 0.233157C2.56948 0.0231676 2.15117 -0.0392083 1.77686 0.0231676L15.8852 13.4453Z" fill="#00EE76"/>
<path d="M15.8852 13.4452L1.77691 0.0230713C1.20433 0.148809 0.720459 0.62929 0.720459 1.61193V25.3409C0.720459 26.2403 1.09488 26.8881 1.7988 26.9505L15.8852 13.4452Z" fill="#00D3FF"/>
</g>
<defs>
<clipPath id="clip0_569_46">
<rect width="26.5591" height="27" fill="white" transform="translate(0.720459)"/>
</clipPath>
</defs>
</svg>
