<?xml version="1.0" encoding="UTF-8"?><svg id="Layer_1" xmlns="http://www.w3.org/2000/svg" viewBox="0 0 347 499"><defs><style>.cls-1{fill:#fff;}.cls-2{fill:#2f2f2f;}.cls-3{fill:#5cbf6c;}</style></defs><g><path class="cls-2" d="M66.72,405c-4,0-7.47,.07-10.94-.02-3.81-.1-5.84-2.01-5.71-5.36,.13-3.46,2.15-5.13,5.5-5.2,3.49-.07,6.98-.02,11.13-.02-.65-3.65,1.98-7.42-2.59-10.08-.89-.52-1.53-3.07-1.02-4.01,.71-1.32,2.56-2.75,3.98-2.82,6.46-.3,12.95-.17,19.42-.13,1.83,.01,3-.18,3.62-2.42,5.18-18.51,10.55-36.97,15.95-55.76-2.75-.81-6.22-1.68-9.58-2.87-13.3-4.73-25.36-11.41-33.06-23.77-8.64-13.86-8.78-28.34-1.78-42.95,7.65-15.95,19.9-27.94,33.72-38.45,23.68-18.01,50.25-30.14,78.85-37.92,4.11-1.12,6.46-2.72,6.1-6.62-5.41-1.75-10.89-2.93-15.85-5.23-12.38-5.74-16.66-15.41-13.48-28.68,.99-4.14,1.4-8.44,2.58-12.52,1.16-4-1.18-6.51-3.11-9.24-.37-.52-1.54-.65-2.35-.66-8.51-.16-13.49-4.19-15.31-12.48-1.02-4.66,1.03-6.79,5.62-5.79,1.26,.27,2.49,.66,3.53,.95,4.67-7.9,9.12-.14,14.67,0-.57-3.54-1.06-6.96-1.68-10.36-1.3-7.21-3.63-14.39-3.78-21.62-.32-15.21,10.49-22.7,24.91-17.56,4.68,1.67,8.73,5.11,13.51,8.01,4.41-4.95,10.49-8.41,18.63-6.51,8.19,1.92,12.98,6.63,12.98,14.67,5.07-.26,10-1.31,14.66-.59,12.49,1.92,18.21,12.4,12.37,23.55-3.41,6.51-8.66,12.14-13.58,17.73-2.11,2.4-3.87,4.38-4.38,7.74-.77,5.13-1.21,9.63,1.38,14.78,4.74,9.42,.38,25.2-7.73,32.01-3.89,3.26-8.44,3.6-13.21,2.86-.99-.15-1.97-.37-3.72-.71,.5,5.28,.74,10.14,1.57,14.9,.22,1.25,2.18,2.37,3.54,3.21,29.21,18.07,55.2,39.83,75.72,67.55,6.12,8.27,11.78,17.11,16.2,26.38,11.58,24.28,6.34,48.56-13.99,66.42-6.17,5.42-13.29,9.78-20.15,14.37-1.88,1.26-2.47,2.22-2.26,4.55,2.78,31.05,5.36,62.13,8.12,93.18,.35,3.99-.96,4.96-4.9,4.95-64.5-.13-128.99-.09-193.49-.1-8.39,0-10.61-2.21-10.61-10.6,0-12.03,0-24.07,0-36.74ZM199.76,236.98c4.11,1.37,3.98,1.38,4.43,4.98,2.56,20.5,8.08,40.01,19.65,57.41,5.43,8.16,12.21,14.96,21.44,20.22,3.13-4.82,6.4-9.3,9.08-14.12,2.84-5.11,2.87-10.58-.62-15.43-5.2-7.23-10.31-14.6-16.26-21.19-9.36-10.37-19.39-20.12-29.09-30.18-.94-.97-1.53-2.27-2.29-3.42l1.18-.85c.95,.79,1.95,1.52,2.83,2.38,5.08,4.98,10.26,9.88,15.18,15.02,10.64,11.12,21.33,22.19,29.76,35.22,4.75,7.34,4.78,14.52,.47,21.89-1.43,2.45-2.84,4.99-4.72,7.08-5.35,5.93-10.93,11.65-16.66,17.71,4.15,7.65,8.51,15.67,12.88,23.72,15.3-5.94,29.64-12.71,41.38-23.92,11.33-10.82,19.08-23.35,19.04-39.7-.03-13.09-5.13-24.42-11.81-35.19-20.82-33.6-49.61-58.98-82.7-79.91-.58-.36-1.29-.51-2.38-.93-3.63,19.93-7.2,39.48-10.8,59.21ZM69.4,385.81c-.09,1.47-.2,2.49-.2,3.5-.01,17.74-.02,35.48,0,53.22,0,5.68,1.68,7.3,7.48,7.3,33.67,0,67.33,0,101,0,5.9,0,7.51-1.64,7.52-7.68,0-17.48,0-34.96-.02-52.44,0-1.25-.13-2.5-.21-3.91H69.4Zm102.79-209.2c-.92,.06-1.31,0-1.66,.11-25.68,7.76-49.79,18.78-71.42,34.79-14.26,10.55-27,22.59-35,38.8-6.71,13.6-7.13,27.35,1.18,40.3,11.65,18.16,30.34,24.06,50.3,27.75,2.65-5.99,5.07-11.69,7.68-17.3,1.07-2.29,.74-3.56-1.41-5.13-5.31-3.88-10.57-7.9-15.44-12.31-4.99-4.52-5.1-8.05-1.22-13.65,4.09-5.92,9.72-10.15,16.27-12.73,4.39-1.73,6.23-4.39,7.34-8.77,1.85-7.32,4.46-14.45,6.84-21.96,4.29,2.06,5.49-.18,7.24-3.24,7.42-12.99,15.22-25.76,23.03-38.53,1.71-2.79,4-5.22,6.27-8.14Zm16.75-119.82c-.91-1.04-1.63-1.71-2.17-2.5-3.63-5.3-8.65-8.4-14.92-9.59-10.15-1.92-17.76,3.47-18.11,13.74-.21,5.97,1.01,12.02,1.93,17.99,.91,5.88,3.34,9.07,10.58,9.6,21.09,1.54,41.47,6.94,61.29,14.37,.92,.35,2.48,.43,3.11-.11,7.17-6.08,13.54-12.87,16.65-21.98,1.88-5.52,.38-9.87-4.15-13.44-4.28-3.37-9.14-4.88-14.53-3.63-3.33,.77-6.57,1.95-10.59,3.18,1.83-8.96-1.22-14.82-10.12-17.03-8.76-2.17-14.18,2.57-18.97,9.4Zm30.54,66.97c-.66,1-1.04,2.15-1.83,2.64-1.96,1.21-4.27,3.11-6.14,2.82-1.42-.23-3.13-3.31-3.36-5.28-.34-2.85,.37-5.88,.95-8.77,.6-2.96-.19-4.74-3.24-5.43-7.81-1.76-15.59-3.7-23.44-5.29-1.57-.32-3.52,.3-5.07,1-6.46,2.9-12.86,5.92-19.2,9.08-.9,.45-1.66,1.79-1.88,2.85-1.14,5.56-1.96,11.19-3.14,16.75-1.45,6.8-1.25,13.36,3.81,18.57,7.54,7.75,16.9,11.88,27.71,9.75,6.87-1.35,13.29-4.83,20.09-6.76,6.4-1.82,9.6-6.62,12.62-11.76,1.21-2.06,2.56-3.39,4.92-4.33,2.03-.81,4.14-2.81,5.05-4.81,2.52-5.57-.08-9.08-7.84-11.04Zm-76.15,104.3c18.35,3.05,36.11,6.01,53.85,8.96,3.78-20.7,7.48-40.93,11.3-61.85-3.85,2.05-6.91,3.92-10.15,5.37-9.41,4.2-14.18,2.66-19.82-6.91-14.81,16.17-25.86,34.26-35.18,54.43Zm-7.46,134.05c3.57-5.3,3.57-8.67,.16-11.46-2.81-2.3-6.88-2.4-9.05,.46-1.32,1.74-2.24,4.58-1.82,6.62,.44,2.13,2.7,3.89,4.13,5.77-1.39,.36-2.84,.73-4.42,1.14,.32,1.61,.54,2.87,.83,4.11,.31,1.35,.67,2.68,1.13,4.49,32.17-7.25,63.98-14.42,96.12-21.66-.5-2.3-.84-3.87-1.35-6.21-13.76,2.24-27.25,4.44-40.31,6.57,.84-1.98,1.83-4.28,2.77-6.49,4.41,.32,9,.64,13.58,.97l.25-1.26c-1.08-.6-2.13-1.25-3.25-1.79-10.25-4.94-20.56-9.74-30.73-14.83-4.03-2.02-7.75-4.66-12.1-7.32,.33,2.24,.91,4.02,.78,5.75-.33,4.23,1.87,6.12,5.49,7.58,4.61,1.86,9,4.28,12.84,6.14-.52,2.75-1.67,5.05-1.12,6.83,.71,2.31,2.77,4.2,4.35,6.42-4.38,.93-9.22,1.95-14.42,3.05,3.12-6.06,2.63-9.64-1.29-11.95-3.13-1.83-7.25-.88-9.25,2.15-2.42,3.65-1.09,7.52,4.15,11.16-5.97,1.29-11.61,2.51-17.48,3.77Zm137.43,87.56c-.94-32.71-4.49-64.73-8.41-97.14-3.35,1.53-6.06,3.08-8.98,4-2.67,.84-3.15,2.32-3.09,4.86,.73,28.05,1.36,56.11,2.03,84.16,.03,1.37,.22,2.73,.34,4.12h18.1ZM226.6,114.45c.54-2.83,.79-4.87,1.34-6.82,.87-3.1-.11-4.72-3.28-5.58-12.93-3.52-25.72-7.61-38.75-10.68-8.72-2.05-17.76-2.75-28.03-4.25,.74,3.74,.38,7.41,1.92,8.57,2.95,2.23,6.88,3.48,10.59,4.33,6.02,1.38,12.18,2.21,18.31,3.1,8.47,1.23,16.47,4.83,25.35,4.33,2.8-.16,5.81,2.4,8.63,3.89,1.21,.64,2.18,1.72,3.92,3.12Zm-105.68,198.16c1.52,2.98,3.11,5.08,3.69,7.43,2.25,9.06,8.12,14.13,16.94,16.07,8.58,1.88,9.92,.8,8.67-7.83-.76-5.22-.4-11.06-5.31-14.88-4.59-3.57-9.16-7.16-13.81-10.65-1.37-1.03-2.99-1.74-4.68-2.7-2.11,4.8-4.01,9.15-5.51,12.56Zm43.45-20.47c11.83,.01,22.23-8.21,24.9-19.99,1.57-6.92,2.6-13.97,4.15-20.9,.6-2.68-.42-3.48-2.71-3.91-14.35-2.66-28.71-5.27-43.02-8.14-2.99-.6-3.9,.3-4.44,3.01-1.26,6.33-2.9,12.58-4.16,18.91-3.2,16.1,8.99,30.99,25.27,31.01Zm45.7,51.51l.34,1.24c2.07-.34,4.16-.64,6.22-1.02,6.82-1.25,7.34-.76,8.64,5.9,.54,2.77-.35,3.69-2.89,4.19-5.57,1.1-11.12,2.35-16.63,3.7-2.74,.67-5.39,1.67-8.08,2.53l.32,1.08c15-.13,29.59-2.82,44.27-7.14-2.33-4.34-4.78-8.31-6.63-12.54-1.51-3.45-3.39-4.27-6.84-2.88-1.87,.75-4.11,.49-6.09,1.04-4.24,1.18-8.42,2.59-12.62,3.9Zm-82.86,39.44c9.45,0,18.9,0,28.35,0,10.1,0,20.19,.05,30.29-.06,1.06-.01,2.11-.9,3.16-1.39-1.08-.62-2.12-1.31-3.24-1.83-.42-.2-1.02-.04-1.54-.04-38.05,0-76.11,0-114.16,0-1.03,0-2.14-.14-3.07,.18-.67,.23-1.1,1.14-1.64,1.74,.56,.45,1.06,1.15,1.68,1.29,.99,.23,2.06,.09,3.09,.09,19.03,0,38.05,0,57.08,0Zm77.33-223.51c-6.72,1.91-13.12,3.71-19.51,5.54-.59,.17-1.29,.4-1.66,.83-3.57,4.26-1.6,12.1,3.74,13.65,6.83,1.98,12.4-1.78,17.27-5.66,1.49-1.19,.79-5.31,.8-8.09,0-2.17-.43-4.33-.65-6.27Zm-78.86,98.37c-7.81,3.5-14.5,7.37-18.75,14.19-1.09,1.75-2.02,4.82-1.22,6.32,2.67,5.03,7.57,7.95,12.06,11.4,2.7-10.88,5.23-21.08,7.92-31.92Zm-9.96,109.49c.1-3.66-3.03-7.05-6.67-7.22-3.68-.17-7.3,3.3-7.32,7.02-.02,3.54,3.32,6.91,6.94,6.99,3.63,.08,6.96-3.13,7.06-6.8Zm-49.2,29.47c-4.03,0-7.62-.19-11.17,.12-.99,.09-2.52,1.63-2.57,2.56-.05,.91,1.43,2.65,2.35,2.72,3.77,.31,7.57,.13,11.39,.13v-5.54Zm121.27,5.54c3.86,0,7.67,.15,11.46-.11,.88-.06,2.39-1.64,2.31-2.38-.12-1.06-1.36-2.78-2.24-2.85-3.77-.32-7.59-.14-11.54-.14v5.48Z"/><path class="cls-1" d="M199.76,236.98c3.6-19.73,7.16-39.28,10.8-59.21,1.09,.42,1.81,.56,2.38,.93,33.09,20.92,61.88,46.3,82.7,79.91,6.67,10.77,11.78,22.1,11.81,35.19,.04,16.35-7.71,28.88-19.04,39.7-11.74,11.21-26.07,17.98-41.38,23.92-4.37-8.05-8.73-16.07-12.88-23.72,5.72-6.05,11.31-11.77,16.66-17.71,1.88-2.09,3.29-4.63,4.72-7.08,4.31-7.36,4.28-14.55-.47-21.89-8.42-13.03-19.11-24.1-29.76-35.22-4.92-5.14-10.09-10.04-15.18-15.02-.88-.86-1.88-1.59-2.83-2.38l-1.18,.85c.75,1.15,1.35,2.45,2.29,3.42,9.7,10.06,19.73,19.82,29.09,30.18,5.95,6.59,11.06,13.96,16.26,21.19,3.49,4.85,3.45,10.33,.62,15.43-2.68,4.81-5.95,9.3-9.08,14.12-9.23-5.26-16.01-12.06-21.44-20.22-11.57-17.4-17.08-36.92-19.65-57.41-.45-3.59-.33-3.61-4.43-4.98Z"/><path class="cls-3" d="M69.4,385.81h115.56c.08,1.41,.2,2.66,.21,3.91,.02,17.48,.03,34.96,.02,52.44,0,6.04-1.61,7.67-7.52,7.68-33.67,0-67.33,0-101,0-5.8,0-7.47-1.62-7.48-7.3-.02-17.74,0-35.48,0-53.22,0-1.02,.11-2.04,.2-3.5Z"/><path class="cls-1" d="M172.19,176.62c-2.27,2.92-4.56,5.35-6.27,8.14-7.81,12.76-15.61,25.54-23.03,38.53-1.75,3.06-2.96,5.3-7.24,3.24-2.39,7.51-5,14.64-6.84,21.96-1.1,4.38-2.95,7.04-7.34,8.77-6.55,2.58-12.18,6.81-16.27,12.73-3.87,5.6-3.76,9.13,1.22,13.65,4.87,4.41,10.13,8.43,15.44,12.31,2.14,1.56,2.47,2.84,1.41,5.13-2.62,5.61-5.04,11.3-7.68,17.3-19.95-3.69-38.65-9.59-50.3-27.75-8.31-12.95-7.89-26.71-1.18-40.3,8-16.21,20.74-28.25,35-38.8,21.64-16.01,45.75-27.03,71.42-34.79,.35-.11,.74-.06,1.66-.11Z"/><path class="cls-1" d="M188.94,56.8c4.79-6.83,10.22-11.57,18.97-9.4,8.89,2.2,11.95,8.06,10.12,17.03,4.02-1.22,7.26-2.41,10.59-3.18,5.39-1.24,10.25,.26,14.53,3.63,4.53,3.56,6.03,7.92,4.15,13.44-3.11,9.11-9.48,15.9-16.65,21.98-.63,.54-2.19,.45-3.11,.11-19.82-7.43-40.2-12.83-61.29-14.37-7.23-.53-9.67-3.72-10.58-9.6-.92-5.96-2.14-12.02-1.93-17.99,.35-10.27,7.96-15.66,18.11-13.74,6.27,1.18,11.29,4.28,14.92,9.59,.54,.79,1.26,1.46,2.17,2.5Z"/><path class="cls-1" d="M219.49,123.77c7.76,1.95,10.35,5.47,7.84,11.04-.9,2-3.01,4-5.05,4.81-2.36,.94-3.71,2.27-4.92,4.33-3.02,5.14-6.22,9.94-12.62,11.76-6.79,1.93-13.22,5.4-20.09,6.76-10.81,2.13-20.17-2-27.71-9.75-5.06-5.21-5.26-11.77-3.81-18.57,1.18-5.55,2-11.18,3.14-16.75,.22-1.06,.98-2.4,1.88-2.85,6.34-3.16,12.74-6.18,19.2-9.08,1.55-.69,3.5-1.32,5.07-1,7.85,1.59,15.63,3.53,23.44,5.29,3.06,.69,3.84,2.47,3.24,5.43-.58,2.89-1.29,5.92-.95,8.77,.23,1.97,1.94,5.05,3.36,5.28,1.86,.3,4.17-1.61,6.14-2.82,.79-.49,1.17-1.65,1.83-2.64Zm-31.38,26.64l.62-.29c-.53-2.51-.86-5.08-1.63-7.51-1.97-6.24-4.87-7.88-11.48-7.69-2.29,.06-4.59-1.27-6.93-1.72-1.77-.34-3.8-.85-5.39-.32-4.56,1.52-6.82,5.55-6.45,10.94,.57-.65,.95-1.11,1.35-1.53,4.57-4.7,6.52-5.01,12.39-2.2,.99,.47,2.25,.72,3.34,.6,3.86-.42,6.77,1.34,9.28,3.9,1.77,1.81,3.29,3.86,4.92,5.8Z"/><path class="cls-1" d="M143.33,228.07c9.32-20.16,20.38-38.26,35.18-54.43,5.64,9.57,10.41,11.12,19.82,6.91,3.24-1.45,6.3-3.32,10.15-5.37-3.82,20.92-7.52,41.14-11.3,61.85-17.74-2.95-35.5-5.91-53.85-8.96Z"/><path class="cls-1" d="M135.87,362.12c5.87-1.27,11.51-2.48,17.48-3.77-5.24-3.64-6.58-7.5-4.15-11.16,2.01-3.02,6.13-3.98,9.25-2.15,3.93,2.3,4.42,5.89,1.29,11.95,5.2-1.1,10.04-2.13,14.42-3.05-1.58-2.21-3.64-4.11-4.35-6.42-.55-1.78,.6-4.08,1.12-6.83-3.84-1.86-8.23-4.28-12.84-6.14-3.62-1.46-5.82-3.36-5.49-7.58,.14-1.73-.45-3.51-.78-5.75,4.34,2.65,8.06,5.3,12.1,7.32,10.17,5.09,20.48,9.9,30.73,14.83,1.11,.54,2.17,1.19,3.25,1.79l-.25,1.26c-4.58-.33-9.17-.66-13.58-.97-.95,2.22-1.93,4.51-2.77,6.49,13.05-2.13,26.54-4.33,40.31-6.57,.51,2.34,.85,3.92,1.35,6.21-32.14,7.24-63.96,14.41-96.12,21.66-.46-1.8-.82-3.14-1.13-4.49-.28-1.24-.51-2.5-.83-4.11,1.58-.41,3.03-.78,4.42-1.14-1.43-1.87-3.68-3.63-4.13-5.77-.42-2.03,.5-4.88,1.82-6.62,2.17-2.87,6.24-2.76,9.05-.46,3.4,2.79,3.41,6.16-.16,11.46Z"/><path class="cls-1" d="M273.3,449.67h-18.1c-.12-1.39-.31-2.75-.34-4.12-.67-28.05-1.29-56.11-2.03-84.16-.07-2.54,.42-4.02,3.09-4.86,2.91-.92,5.63-2.47,8.98-4,3.92,32.41,7.47,64.43,8.41,97.14Z"/><path class="cls-1" d="M226.6,114.45c-1.73-1.41-2.71-2.49-3.92-3.12-2.82-1.49-5.83-4.04-8.63-3.89-8.88,.5-16.88-3.09-25.35-4.33-6.13-.89-12.28-1.72-18.31-3.1-3.71-.85-7.64-2.1-10.59-4.33-1.54-1.16-1.18-4.84-1.92-8.57,10.27,1.5,19.31,2.19,28.03,4.25,13.03,3.07,25.82,7.16,38.75,10.68,3.16,.86,4.15,2.49,3.28,5.58-.55,1.95-.8,3.99-1.34,6.82Z"/><path class="cls-1" d="M120.92,312.61c1.5-3.41,3.4-7.76,5.51-12.56,1.69,.96,3.3,1.67,4.68,2.7,4.65,3.49,9.22,7.08,13.81,10.65,4.91,3.82,4.56,9.65,5.31,14.88,1.25,8.64-.09,9.72-8.67,7.83-8.82-1.94-14.69-7.01-16.94-16.07-.58-2.35-2.17-4.45-3.69-7.43Z"/><path class="cls-1" d="M164.37,292.14c-16.28-.02-28.47-14.91-25.27-31.01,1.26-6.33,2.9-12.58,4.16-18.91,.54-2.71,1.45-3.61,4.44-3.01,14.31,2.86,28.67,5.48,43.02,8.14,2.29,.42,3.31,1.22,2.71,3.91-1.55,6.93-2.58,13.97-4.15,20.9-2.67,11.78-13.07,20-24.9,19.99Zm26.36-41.69c-14.47-2.74-28.04-5.35-41.64-7.76-.96-.17-2.95,1.04-3.19,1.95-1.52,5.74-2.84,11.55-3.91,17.39-2.15,11.72,4.56,22.78,15.64,26.14,11.16,3.39,23.65-1.99,27.44-12.92,2.73-7.85,3.78-16.27,5.67-24.81Z"/><path class="cls-1" d="M210.07,343.64c4.2-1.31,8.38-2.72,12.62-3.9,1.98-.55,4.23-.29,6.09-1.04,3.46-1.39,5.33-.56,6.84,2.88,1.85,4.23,4.3,8.2,6.63,12.54-14.68,4.31-29.27,7-44.27,7.14l-.32-1.08c2.69-.85,5.35-1.86,8.08-2.53,5.52-1.34,11.06-2.6,16.63-3.7,2.54-.5,3.43-1.42,2.89-4.19-1.3-6.67-1.82-7.15-8.64-5.9-2.07,.38-4.15,.68-6.22,1.02l-.34-1.24Z"/><path class="cls-1" d="M127.21,383.09c-19.03,0-38.05,0-57.08,0-1.04,0-2.11,.14-3.09-.09-.63-.14-1.13-.84-1.68-1.29,.54-.6,.97-1.51,1.64-1.74,.93-.33,2.04-.18,3.07-.18,38.05,0,76.11,0,114.16,0,.52,0,1.11-.16,1.54,.04,1.12,.53,2.17,1.21,3.24,1.83-1.05,.48-2.11,1.38-3.16,1.39-10.1,.1-20.19,.06-30.29,.06-9.45,0-18.9,0-28.35,0Z"/><path class="cls-1" d="M204.54,159.58c.22,1.94,.66,4.11,.65,6.27-.01,2.78,.69,6.91-.8,8.09-4.87,3.88-10.44,7.65-17.27,5.66-5.34-1.55-7.31-9.39-3.74-13.65,.37-.44,1.07-.66,1.66-.83,6.39-1.83,12.78-3.64,19.51-5.54Z"/><path class="cls-1" d="M125.68,257.95c-2.69,10.84-5.22,21.04-7.92,31.92-4.49-3.46-9.39-6.38-12.06-11.4-.8-1.51,.13-4.57,1.22-6.32,4.25-6.83,10.94-10.69,18.75-14.19Z"/><path class="cls-3" d="M115.72,367.44c-.1,3.67-3.43,6.88-7.06,6.8-3.62-.08-6.96-3.45-6.94-6.99,.02-3.72,3.64-7.19,7.32-7.02,3.64,.17,6.77,3.55,6.67,7.22Z"/><path class="cls-1" d="M66.52,396.91v5.54c-3.82,0-7.62,.18-11.39-.13-.92-.08-2.39-1.81-2.35-2.72,.05-.94,1.58-2.48,2.57-2.56,3.55-.31,7.14-.12,11.17-.12Z"/><path class="cls-1" d="M187.8,402.45v-5.48c3.95,0,7.77-.18,11.54,.14,.88,.07,2.12,1.79,2.24,2.85,.08,.74-1.43,2.32-2.31,2.38-3.79,.27-7.61,.11-11.46,.11Z"/><path d="M188.11,150.41c-1.63-1.94-3.16-3.99-4.92-5.8-2.51-2.56-5.41-4.32-9.28-3.9-1.08,.12-2.35-.13-3.34-.6-5.86-2.81-7.82-2.51-12.39,2.2-.41,.42-.78,.88-1.35,1.53-.37-5.39,1.89-9.42,6.45-10.94,1.59-.53,3.62-.03,5.39,.32,2.34,.45,4.64,1.78,6.93,1.72,6.61-.19,9.52,1.45,11.48,7.69,.77,2.43,1.1,5,1.63,7.51l-.62,.29Z"/><path class="cls-3" d="M190.73,250.45c-1.88,8.53-2.94,16.96-5.67,24.81-3.8,10.93-16.29,16.3-27.44,12.92-11.08-3.36-17.78-14.42-15.64-26.14,1.07-5.84,2.4-11.65,3.91-17.39,.24-.91,2.23-2.12,3.19-1.95,13.61,2.4,27.17,5.02,41.64,7.76Z"/></g><path class="cls-1" d="M168.88,278.99s-.08,0-.12,0c-2.6-.51-5.2-1.01-7.79-1.54-2.82-.58-4.67-3.06-4.79-5.75-.02-.45,0-.9,.08-1.34,0-.05,.02-.1,.03-.16l.12,.02c4.5,.89,9,1.78,13.5,2.67,.04,0,.08,.03,.12,.04l-1.16,6.08Z"/><path class="cls-1" d="M170.5,270.51s-.09-.01-.14-.02c-3.43-.68-6.85-1.36-10.28-2.03-2.27-.45-4-2.16-4.62-4.31-.23-.81-.3-1.63-.21-2.47,.02-.16,.04-.32,.07-.49,.04,0,.07,0,.09,0,.02,0,.04,0,.06,.01,5.34,1.05,10.68,2.11,16.03,3.16,.05,0,.1,.04,.15,.05l-1.16,6.08Z"/><path class="cls-1" d="M172.13,261.93s-.09,0-.14-.01c-1.19-.23-2.37-.47-3.56-.7-5.79-1.14-11.57-2.28-17.36-3.43-.05,0-.1-.02-.15-.02l.06-.33c.02-.06,.05-.11,.07-.17,.07-.21,.13-.43,.21-.64,.46-1.19,1.21-2.15,2.24-2.85,1.26-.86,2.64-1.2,4.13-1.01,.03,0,.06,0,.1,0l15.54,3.07-1.16,6.1Z"/></svg>